<?xml version="1.0" standalone="no"?>
<!DOCTYPE svg PUBLIC "-//W3C//DTD SVG 20010904//EN"
 "http://www.w3.org/TR/2001/REC-SVG-20010904/DTD/svg10.dtd">
<svg version="1.0" xmlns="http://www.w3.org/2000/svg"
 width="581.000000pt" height="581.000000pt" viewBox="0 0 581.000000 581.000000"
 preserveAspectRatio="xMidYMid meet">
<metadata>
Created by potrace 1.11, written by Peter Selinger 2001-2013
</metadata>
<g transform="translate(0.000000,581.000000) scale(0.100000,-0.100000)"
fill="#000000" stroke="none">
<path d="M3851 5453 c-1 -24 -6 -43 -13 -46 -10 -3 -10 -7 0 -20 8 -9 11 -29
8 -49 -2 -18 -8 -55 -11 -83 -18 -137 -78 -353 -121 -436 -13 -26 -14 -33 -2
-41 9 -7 6 -8 -12 -6 -22 4 -25 1 -25 -26 0 -17 5 -37 9 -45 11 -17 18 -184
10 -206 -4 -8 -10 -12 -15 -9 -5 3 -6 11 -3 17 5 8 3 8 -6 0 -16 -15 -23 -46
-8 -37 6 4 8 -1 5 -12 -3 -11 -11 -38 -18 -61 -7 -24 -15 -43 -18 -43 -4 0 -7
-8 -8 -18 -2 -29 -44 -93 -56 -85 -6 4 -8 0 -4 -10 3 -9 -6 -30 -24 -53 -27
-35 -29 -35 -30 -13 -1 17 -4 14 -8 -11 -4 -19 -3 -43 2 -53 10 -22 7 -77 -6
-94 -6 -9 -5 -13 2 -13 6 0 11 -16 11 -35 0 -25 -4 -35 -16 -35 -11 0 -15 9
-13 33 4 55 -1 141 -7 134 -3 -3 -6 -32 -5 -64 0 -34 -4 -60 -12 -65 -6 -4
-10 -24 -8 -47 2 -34 0 -40 -13 -35 -9 3 -16 2 -16 -4 0 -5 6 -12 13 -15 9 -3
14 -34 16 -108 1 -61 7 -110 14 -118 8 -10 8 -13 1 -8 -17 10 -20 -17 -13
-103 3 -41 7 -64 8 -50 3 24 4 24 10 -5 8 -34 3 -54 -10 -34 -5 8 -7 -36 -5
-103 3 -64 8 -123 12 -129 6 -10 7 -1360 1 -1366 -1 -1 -21 -4 -44 -6 -39 -5
-42 -3 -52 25 -6 17 -12 45 -12 62 -1 30 -2 29 -9 -7 -12 -62 -30 -88 -59 -85
-23 3 -26 8 -26 43 -1 22 -6 50 -13 62 -7 12 -12 34 -13 50 -1 21 -3 18 -10
-15 -4 -23 -12 -48 -16 -55 -4 -6 -8 -28 -8 -47 0 -32 -3 -35 -32 -38 -38 -4
-55 21 -60 88 -1 25 -5 80 -8 124 -2 43 -11 92 -20 109 -8 16 -15 53 -15 80 0
28 -3 47 -7 44 -3 -4 -6 -26 -6 -49 1 -24 -7 -56 -16 -73 -10 -17 -16 -47 -15
-70 1 -22 -1 -44 -4 -49 -3 -5 -6 -24 -8 -43 -10 -108 -32 -97 -53 27 -7 39
-9 41 -10 13 -1 -34 -20 -83 -31 -83 -9 0 -41 100 -36 109 3 4 1 13 -5 21 -6
11 -9 1 -9 -30 0 -26 -5 -51 -11 -57 -7 -7 -11 -38 -10 -71 0 -33 -3 -71 -9
-84 -7 -17 -9 1 -7 69 1 63 -2 96 -10 104 -7 7 -13 23 -13 35 0 13 -4 26 -10
29 -6 3 -10 -4 -10 -17 0 -13 -5 -29 -12 -36 -7 -7 -11 -38 -10 -77 1 -39 -2
-65 -8 -65 -7 0 -10 27 -9 68 1 38 -4 78 -10 90 -6 12 -14 41 -17 64 -8 56
-14 61 -14 12 -1 -21 -7 -50 -15 -64 -8 -14 -14 -51 -15 -83 0 -38 -4 -56 -10
-52 -7 4 -10 37 -8 80 1 45 -2 78 -10 87 -6 8 -14 34 -17 58 -7 55 -15 65 -15
17 0 -20 -9 -59 -20 -87 -11 -27 -16 -50 -12 -50 13 0 7 -73 -6 -78 -9 -3 -12
16 -11 70 1 46 -4 84 -12 99 -7 13 -16 44 -20 69 l-6 45 -2 -40 c0 -22 -9 -51
-18 -64 -9 -13 -17 -40 -18 -60 -4 -66 -5 -71 -15 -71 -7 0 -10 25 -8 63 1 36
-4 72 -11 86 -8 13 -15 44 -16 69 -4 51 -15 69 -16 26 -1 -42 -7 -73 -21 -97
-7 -12 -11 -26 -9 -32 1 -5 -1 -7 -5 -2 -4 4 -6 56 -5 116 1 67 -2 112 -9 116
-5 3 -10 12 -10 18 0 8 3 8 9 -1 14 -23 16 19 13 278 -2 159 -6 240 -12 230
-7 -10 -10 2 -10 43 0 33 4 57 10 57 7 0 7 6 0 20 -6 11 -8 20 -4 20 3 0 2 6
-4 13 -14 17 -45 126 -39 140 2 7 1 21 -4 32 -8 22 -9 18 -12 -50 -2 -22 -6
-46 -10 -52 -5 -7 -5 -13 -2 -13 4 0 -3 -13 -14 -29 -12 -16 -18 -36 -15 -45
4 -10 1 -16 -7 -16 -10 0 -10 -3 -1 -12 15 -15 17 -112 2 -103 -6 4 -10 -7
-10 -27 0 -22 -3 -29 -9 -19 -5 7 -7 27 -6 45 1 17 -3 42 -10 56 -7 14 -11 35
-10 48 1 13 -2 25 -7 28 -4 3 -8 -11 -8 -30 0 -36 -17 -57 -30 -37 -4 7 -5 24
-2 38 3 18 1 24 -7 19 -15 -10 -15 86 1 102 9 9 9 12 -1 12 -7 0 -11 8 -10 18
1 9 -4 31 -11 47 -7 17 -14 32 -14 35 -1 3 -5 11 -10 18 -4 7 -6 16 -3 19 3 3
2 15 -3 28 -5 14 -5 26 3 34 8 8 8 11 -2 11 -7 0 -10 4 -6 9 3 5 1 12 -5 16
-5 3 -10 0 -11 -7 0 -18 -8 -88 -12 -116 -2 -13 -10 -28 -18 -33 -8 -5 -9 -9
-4 -9 6 0 3 -6 -5 -13 -15 -12 -25 -67 -12 -67 4 0 8 -25 10 -56 2 -37 0 -54
-7 -49 -7 4 -11 -6 -11 -24 0 -17 -4 -31 -9 -31 -6 0 -6 -12 -1 -29 4 -16 4
-34 -1 -42 -7 -11 -10 -9 -15 9 -5 16 -9 20 -14 12 -13 -22 -48 7 -53 43 -3
22 -4 15 -5 -20 l-2 -53 -36 0 c-19 0 -42 7 -50 15 -14 13 -13 15 4 15 16 0
19 5 14 22 -4 18 -2 20 16 16 12 -4 23 -2 23 3 1 5 2 14 3 19 0 6 8 15 16 20
12 8 12 10 -2 15 -9 4 -31 5 -49 3 -26 -2 -35 -9 -46 -36 -7 -17 -10 -31 -6
-31 22 4 22 -3 -1 -23 -28 -26 -42 -92 -45 -216 -1 -42 -4 -78 -7 -81 -9 -10
-3 150 10 235 15 95 34 147 62 162 13 7 14 14 7 27 -6 11 -7 31 -3 49 5 17 11
43 14 59 5 20 12 27 30 27 34 0 92 -26 75 -33 -8 -4 0 -4 16 0 42 8 47 12 37
30 -5 8 -8 36 -7 61 1 26 0 34 -2 17 -2 -16 -9 -34 -15 -40 -7 -7 -9 1 -5 25
3 19 11 95 18 168 11 124 22 161 32 110 4 -20 4 -20 6 4 0 15 8 33 16 42 10
10 12 17 4 21 -6 4 -8 13 -5 21 3 8 0 11 -10 7 -10 -4 -17 2 -21 16 -4 14 -18
24 -46 32 -39 10 -87 49 -87 70 0 16 13 10 65 -28 43 -32 75 -48 75 -38 0 2
-37 36 -82 76 -45 41 -78 67 -73 59 6 -12 6 -13 -6 -2 -9 8 -10 15 -4 20 6 4
11 50 12 102 1 103 -2 108 -12 15 -6 -48 -9 -56 -17 -40 -7 12 -8 58 -4 129 4
60 5 108 2 105 -2 -2 -10 -59 -17 -127 -7 -67 -15 -122 -19 -122 -4 0 -16 19
-28 43 -12 24 -32 53 -45 65 -20 19 -24 31 -21 65 3 30 1 36 -5 22 -5 -11 -7
-23 -5 -27 3 -4 0 -9 -6 -13 -16 -10 -77 43 -95 83 -10 20 -26 54 -35 75 -12
24 -14 37 -7 37 7 0 6 4 -3 10 -12 7 -11 12 9 29 12 11 29 17 37 14 7 -3 28 0
45 6 19 6 38 7 47 2 9 -5 27 -5 44 1 34 12 81 -4 103 -36 8 -11 15 -15 15 -8
0 22 18 13 24 -13 8 -32 26 -32 26 -1 0 14 5 28 10 31 6 4 3 16 -10 32 -11 14
-17 29 -14 34 3 5 0 9 -5 9 -6 0 -11 5 -11 11 0 5 5 7 12 3 7 -4 8 -3 4 5 -4
6 -12 9 -17 6 -5 -4 -9 -2 -9 4 0 13 -50 71 -61 71 -6 0 -7 -6 -3 -12 4 -8 3
-10 -2 -5 -5 5 -9 12 -9 16 0 4 -17 24 -38 44 -34 34 -51 67 -27 52 17 -11 11
22 -7 36 -11 10 -14 10 -9 2 4 -7 3 -13 -2 -13 -5 0 -12 8 -15 19 -3 15 0 17
16 13 11 -3 18 -1 14 4 -3 6 -24 11 -47 12 -39 3 -40 2 -36 -23 3 -14 1 -23
-4 -20 -5 3 -11 1 -15 -5 -3 -5 -1 -10 4 -10 6 0 11 -6 11 -14 0 -16 -43 -53
-115 -99 -38 -25 -53 -42 -66 -77 -11 -29 -14 -51 -8 -62 5 -9 13 -41 18 -70
7 -45 9 -48 10 -18 1 29 7 38 36 51 l35 16 -6 -26 c-4 -14 -12 -30 -18 -36 -6
-5 -12 -21 -13 -35 -5 -62 -11 -83 -33 -103 -18 -16 -20 -17 -9 -3 16 22 13
21 -57 -16 -28 -15 -63 -41 -78 -58 -25 -30 -25 -33 -10 -62 9 -17 11 -27 6
-24 -6 4 -13 2 -17 -4 -4 -6 -11 -7 -17 -4 -5 4 -4 -4 2 -17 18 -35 23 -38 16
-9 l-7 25 20 -23 c23 -26 38 -22 52 15 8 21 14 24 46 21 33 -2 38 0 49 28 12
29 12 31 -9 29 -12 0 -26 1 -30 3 -12 6 20 50 69 99 35 34 41 37 33 16 -13
-35 -11 -42 5 -14 13 23 13 22 25 -22 18 -64 12 -82 -26 -82 -21 1 -29 -3 -26
-12 3 -7 9 -11 13 -8 5 3 10 -5 12 -17 2 -13 9 -22 17 -20 28 6 69 -10 74 -29
3 -11 14 -19 25 -19 11 0 34 -12 51 -26 17 -14 35 -23 41 -19 6 4 10 -15 10
-52 0 -85 -32 -333 -42 -327 -5 3 -7 24 -4 47 3 23 7 76 10 117 6 100 -10 36
-19 -74 -9 -117 -8 -115 -58 -105 -23 4 -45 8 -49 9 -5 0 -9 48 -10 108 l-1
107 -10 -107 -9 -108 -37 0 c-77 0 -78 2 -88 108 l-10 97 -2 -85 c-2 -140 -24
-141 -51 -2 -7 34 -16 59 -21 57 -4 -3 -10 5 -12 17 -3 13 -3 -25 0 -83 3 -70
2 -109 -5 -113 -6 -4 -9 -13 -6 -21 4 -8 10 -13 15 -10 4 3 13 -4 19 -15 6
-11 15 -18 20 -15 15 9 68 -23 75 -46 10 -30 13 -68 6 -67 -17 2 -34 -3 -29
-8 4 -3 47 -7 97 -8 111 -3 114 4 9 21 -21 3 -38 10 -38 14 0 11 2 11 57 0 40
-8 41 -7 47 20 6 32 37 56 85 65 33 7 34 6 28 -22 -3 -16 -2 -36 3 -44 4 -8
10 -35 13 -60 4 -25 11 -60 16 -78 6 -19 11 -58 12 -88 2 -39 6 -51 14 -44 7
6 15 6 22 -1 7 -7 2 -25 -14 -56 -12 -26 -23 -55 -23 -65 0 -11 -4 -17 -8 -14
-5 3 -6 -9 -4 -26 3 -22 1 -29 -7 -23 -7 4 -10 14 -6 22 4 13 3 14 -9 4 -17
-14 -14 -23 -39 114 -17 89 -54 195 -68 195 -5 0 -9 5 -9 11 0 5 4 8 9 4 5 -3
12 -1 16 4 3 6 -3 15 -14 20 -25 14 -201 14 -201 1 0 -5 5 -10 10 -10 6 0 10
-9 10 -20 0 -11 -3 -20 -8 -20 -4 0 -7 -15 -6 -32 1 -18 3 -57 5 -85 1 -29 -1
-56 -6 -60 -4 -5 -5 -2 -1 5 4 6 2 12 -4 12 -8 0 -10 -9 -6 -24 3 -12 3 -26 0
-29 -3 -3 -5 -104 -4 -225 0 -164 -2 -221 -11 -224 -8 -3 -9 -9 -3 -19 5 -8 9
-44 9 -81 l0 -68 -53 0 -54 0 4 48 3 47 -60 0 c-47 0 -59 -3 -57 -14 8 -35 8
-82 0 -87 -4 -3 -8 4 -8 15 0 11 -4 23 -10 26 -6 4 -10 -5 -10 -20 0 -22 -3
-24 -19 -16 -10 6 -21 7 -25 4 -3 -3 -7 5 -8 18 0 13 -2 29 -3 34 -2 6 -3 16
-4 23 -1 10 -4 10 -15 0 -8 -7 -10 -15 -6 -18 11 -7 8 -42 -5 -55 -5 -6 -23
-12 -39 -13 -25 -2 -27 0 -16 14 8 8 9 14 4 12 -5 -2 -10 1 -11 6 -1 5 -7 12
-13 16 -14 9 -18 42 -20 175 -1 66 -5 92 -10 75 -6 -17 -8 -2 -9 52 -1 42 3
88 9 102 7 18 6 26 -1 26 -6 0 -9 9 -6 20 3 11 0 20 -6 20 -7 0 -5 5 3 10 10
6 11 10 3 10 -17 0 -17 82 -1 98 9 9 9 12 -1 12 -8 0 -11 7 -8 20 3 11 2 20
-3 20 -4 0 -11 10 -15 23 -11 33 -12 37 -15 40 -2 2 -5 31 -9 107 -1 13 -2 13
-11 0 -5 -8 -7 -27 -5 -42 3 -16 1 -28 -5 -28 -6 0 -9 -4 -5 -9 6 -11 -26 -91
-36 -91 -4 0 -5 -9 -2 -20 3 -13 0 -20 -8 -20 -11 0 -11 -2 0 -9 13 -8 13 -12
1 -26 -9 -11 -14 -42 -15 -81 0 -35 -1 -64 -2 -64 -1 0 -9 7 -17 16 -9 8 -16
11 -16 5 0 -6 -5 -11 -11 -11 -8 0 -10 15 -5 46 3 29 1 54 -6 67 -7 12 -13 33
-14 47 -1 14 -3 27 -4 30 -3 7 -20 -65 -27 -114 -3 -22 -10 -45 -16 -51 -15
-16 -47 -7 -48 14 -2 34 3 66 13 72 5 3 3 9 -6 12 -12 5 -15 14 -10 34 4 22 3
25 -5 13 -8 -11 -11 1 -11 48 0 43 4 62 13 62 9 0 8 3 -2 9 -8 5 -11 16 -6 30
3 11 2 21 -3 21 -10 0 -25 37 -23 58 1 6 -2 12 -7 12 -5 0 -10 25 -10 55 0 55
-6 75 -18 62 -4 -3 -7 -31 -7 -62 0 -30 -5 -55 -11 -55 -5 0 -7 -3 -3 -6 7 -8
-20 -64 -31 -64 -4 0 -6 -34 -4 -75 2 -41 -1 -75 -6 -75 -7 0 -11 -21 -13 -82
0 -10 -5 -18 -10 -18 -20 0 -49 21 -49 35 0 8 -4 15 -10 15 -5 0 -10 -11 -10
-25 0 -18 -5 -25 -20 -25 -15 0 -20 7 -20 24 0 14 4 27 9 30 10 7 4 39 -16 76
-7 14 -13 31 -13 38 0 6 -4 12 -8 12 -4 0 -9 19 -9 43 -2 72 -2 74 -13 56 -5
-8 -7 -24 -6 -35 2 -10 1 -23 -2 -29 -3 -5 -7 -19 -8 -31 -1 -12 -11 -35 -20
-50 -20 -30 -24 -44 -28 -94 -2 -22 -8 -35 -17 -35 -8 0 -20 -4 -27 -9 -21
-13 -60 32 -56 66 2 15 -1 28 -6 28 -6 0 -10 -11 -10 -24 0 -14 -4 -36 -10
-50 -5 -14 -10 -56 -11 -93 -2 -74 -13 -93 -53 -93 -26 0 -26 1 -26 83 0 51 5
88 12 95 9 9 9 12 0 12 -7 0 -12 14 -13 33 0 28 -2 29 -10 12 -6 -14 -7 1 -4
45 11 123 11 129 -3 135 -7 3 -10 9 -7 15 3 5 1 10 -4 10 -6 0 -11 8 -11 18 0
10 -3 22 -7 26 -4 4 -9 26 -10 49 -3 80 -4 85 -13 57 -11 -35 -12 -3070 -1
-3070 5 0 44 6 87 14 44 8 158 29 254 46 170 30 458 87 859 169 135 27 209 38
240 34 28 -3 73 1 112 11 36 9 85 18 108 19 22 1 41 4 41 7 0 6 8 8 90 16 47
5 58 3 73 -14 18 -19 17 -20 -60 -36 -43 -10 -89 -21 -103 -26 -14 -5 -68 -16
-120 -26 -52 -9 -147 -28 -210 -41 -63 -14 -142 -31 -175 -38 -33 -7 -94 -20
-135 -30 -41 -10 -93 -21 -115 -25 -34 -6 -154 -31 -435 -90 -30 -6 -71 -15
-90 -20 -19 -4 -114 -25 -210 -46 -229 -48 -220 -44 -220 -94 0 -23 4 -39 8
-36 8 5 496 118 612 141 36 7 142 32 235 54 769 184 972 228 990 214 14 -11
97 -134 93 -138 -1 -2 -82 -26 -178 -54 -96 -28 -283 -82 -415 -122 -132 -39
-267 -78 -300 -87 l-60 -17 68 -3 c37 -2 83 1 102 7 21 6 33 6 30 0 -4 -5 -2
-9 4 -9 5 0 12 6 14 13 4 9 8 8 16 -3 9 -13 11 -13 11 2 0 11 15 20 53 28 47
12 88 25 142 46 11 4 25 8 30 9 6 1 30 8 55 15 25 7 54 14 65 15 11 1 36 9 55
18 65 31 100 37 146 25 34 -9 41 -15 34 -27 -4 -9 -11 -44 -15 -78 l-7 -63
141 0 141 0 0 54 c0 34 5 56 13 59 6 3 7 6 1 6 -13 1 -9 60 5 74 8 8 11 8 11
-2 0 -7 5 -9 12 -5 7 5 8 3 3 -5 -11 -19 -12 -80 0 -85 5 -3 4 -5 -4 -5 -11
-1 -11 -4 0 -18 10 -11 10 -14 2 -9 -9 5 -13 0 -13 -14 0 -12 -4 -19 -9 -15
-6 3 -9 -4 -8 -15 1 -17 8 -20 55 -20 l53 0 -25 24 c-31 28 -32 31 -6 33 11 1
20 -3 20 -8 0 -6 6 -7 12 -3 10 5 10 4 1 -6 -23 -25 12 -41 70 -31 4 0 7 9 7
19 0 14 -2 15 -10 2 -9 -13 -11 -13 -20 0 -13 20 -12 27 2 36 8 5 9 1 4 -12
-5 -14 -4 -16 5 -7 13 13 2 36 -15 30 -7 -3 -11 9 -11 37 0 33 4 42 17 42 16
0 16 -2 1 -18 -21 -23 0 -24 23 -1 17 17 17 15 11 -29 -4 -28 -2 -50 3 -53 6
-4 8 -11 4 -16 -9 -15 16 -39 41 -39 17 0 22 5 20 23 -1 12 1 31 6 42 6 15 8
9 8 -22 1 -43 1 -43 39 -43 l37 0 -3 155 c-2 97 1 155 7 155 5 0 9 -24 8 -54
-2 -30 0 -50 4 -44 4 7 9 6 14 -1 4 -7 2 -17 -3 -24 -12 -16 -21 -66 -12 -69
13 -5 22 -48 11 -48 -6 0 -11 5 -11 12 0 6 -3 8 -6 5 -4 -4 -1 -13 6 -22 7 -8
8 -15 3 -15 -6 0 -8 -11 -5 -25 3 -20 10 -25 33 -25 16 0 29 5 29 13 0 8 4 7
10 -3 6 -10 10 -11 10 -2 0 6 7 12 15 12 9 0 12 6 9 17 -5 15 -4 16 5 3 6 -8
11 -13 12 -10 8 45 11 56 18 63 5 5 6 -3 4 -17 -6 -28 13 -37 23 -11 4 8 10
13 14 10 5 -3 20 0 33 6 18 8 23 17 19 31 -3 11 1 24 9 29 21 13 29 11 29 -8
0 -14 -2 -15 -9 -5 -6 11 -10 10 -15 -4 -9 -23 -3 -27 27 -13 15 7 23 17 20
25 -6 15 13 44 28 44 5 0 9 -4 9 -10 0 -5 -7 -10 -15 -10 -8 0 -15 -7 -15 -15
0 -8 5 -15 11 -15 5 0 7 4 4 10 -3 6 1 7 9 4 22 -8 32 24 16 50 -9 16 -9 18 0
9 7 -6 19 -9 26 -6 8 3 14 -1 14 -11 0 -9 6 -16 13 -16 8 0 13 10 13 21 -1 12
5 24 12 26 6 3 12 -3 12 -12 0 -12 6 -15 23 -10 28 8 59 44 50 58 -3 5 -1 7 5
3 5 -3 13 0 15 6 4 9 6 10 6 1 1 -6 -3 -14 -8 -17 -10 -7 -3 -46 8 -46 4 0 12
5 19 12 7 7 12 9 12 5 0 -3 -11 -14 -25 -23 -20 -13 -28 -14 -40 -4 -10 8 -15
9 -15 2 0 -6 8 -16 18 -21 9 -6 12 -11 6 -11 -6 0 -17 7 -24 15 -14 17 -35 21
-25 5 4 -6 -1 -7 -12 -4 -16 5 -16 4 1 -10 11 -9 15 -16 9 -16 -7 0 -19 -7
-27 -16 -15 -14 -16 -14 -16 5 0 12 -5 21 -11 21 -6 0 -9 -7 -5 -15 3 -8 1
-15 -4 -15 -6 0 -10 4 -10 9 0 5 -9 7 -20 4 -23 -6 -25 -14 -7 -33 10 -12 9
-12 -5 -1 -15 11 -18 11 -18 0 0 -12 -2 -12 -9 0 -9 14 -31 7 -31 -10 0 -6 5
-7 12 -3 6 4 8 3 4 -4 -3 -6 1 -15 10 -20 15 -8 15 -10 0 -15 -12 -5 -15 -3
-10 5 5 7 2 9 -9 5 -11 -4 -14 -2 -11 7 7 18 -9 28 -30 20 -14 -5 -14 -9 -4
-23 11 -14 11 -14 -4 -3 -14 11 -21 11 -40 1 -13 -7 -26 -12 -30 -11 -5 1 -8
-3 -8 -8 0 -6 -4 -10 -10 -10 -5 0 -24 -9 -42 -20 l-33 -20 70 1 c61 2 81 7
158 45 48 25 87 47 87 49 0 3 -10 0 -22 -6 -22 -12 -22 -11 -8 7 8 10 16 21
17 23 1 2 8 -1 15 -7 10 -8 28 -2 71 22 31 18 54 36 50 41 -5 4 0 5 10 2 10
-4 16 -3 13 2 -6 10 23 26 39 22 17 -4 274 133 268 143 -4 5 -1 6 5 3 16 -11
41 3 35 19 -4 12 -8 12 -22 2 -14 -12 -15 -11 -2 5 7 9 10 17 5 17 -13 -1 -50
-30 -38 -30 12 0 -18 -20 -30 -20 -5 0 5 13 22 28 24 22 29 31 20 40 -9 9 -9
12 -1 12 6 0 13 -5 15 -11 6 -17 98 27 98 48 0 13 2 15 9 5 12 -20 61 5 62 32
1 18 2 18 6 3 3 -11 10 -16 19 -13 8 3 21 9 29 12 9 4 15 1 15 -7 0 -7 2 -10
5 -7 12 11 -7 37 -23 31 -22 -8 -13 1 15 16 19 10 22 9 17 -3 -5 -12 5 -10 45
6 28 12 51 28 51 35 0 7 1 13 3 13 1 0 36 14 77 31 106 44 173 67 266 93 l80
23 0 -26 c-1 -14 -4 -31 -9 -38 -5 -8 0 -9 15 -6 36 9 48 23 48 58 0 32 1 32
75 48 103 23 113 23 89 -4 -18 -20 -18 -21 -1 -31 15 -8 17 -17 11 -53 -6 -42
-5 -44 22 -47 23 -2 30 -9 32 -30 2 -17 9 -28 18 -28 11 0 14 9 10 38 -2 25
-8 37 -18 36 -10 -1 -13 6 -10 22 4 24 21 33 23 14 1 -5 2 -14 3 -19 0 -5 4
-13 9 -17 4 -4 7 -25 7 -46 0 -28 4 -38 16 -38 13 0 14 3 5 14 -9 10 -8 21 0
42 7 16 15 54 18 84 l6 55 105 7 c161 10 319 10 383 0 32 -5 60 -6 62 -2 2 4
27 5 54 2 74 -7 609 9 586 18 -11 4 -26 5 -32 3 -7 -3 -13 -1 -13 3 0 15 14
30 33 37 22 8 22 37 -1 37 -11 0 -21 -11 -27 -32 -11 -35 -35 -50 -36 -21 0
15 -2 14 -9 -4 -5 -13 -17 -23 -26 -23 -12 0 -15 7 -12 30 4 24 1 30 -13 30
-14 0 -17 -6 -14 -30 2 -16 -1 -30 -6 -30 -5 0 -9 9 -9 19 0 11 -4 23 -10 26
-11 7 9 45 23 45 4 0 5 -4 2 -10 -4 -6 7 -10 24 -10 18 0 31 5 31 13 0 19 116
10 132 -11 12 -15 11 -16 -4 -3 -16 12 -18 11 -18 -3 0 -20 32 -35 38 -18 7
22 20 12 18 -13 0 -14 -7 -25 -14 -25 -7 0 -10 4 -7 10 3 5 1 10 -4 10 -6 0
-11 -4 -11 -9 0 -19 27 -27 77 -23 l52 4 -1 106 c-1 112 -5 142 -18 142 -13 0
-19 -39 -6 -44 6 -2 2 -5 -9 -6 -11 -1 -35 -3 -53 -4 -39 -4 -46 5 -44 60 1
25 -3 46 -10 50 -18 11 -48 12 -54 2 -3 -4 -10 -5 -16 -2 -7 4 -8 2 -4 -4 4
-7 1 -12 -8 -12 -9 0 -16 -6 -16 -12 -1 -7 -7 -2 -15 12 -11 21 -15 22 -20 9
-5 -14 -64 -23 -63 -9 1 20 -4 30 -12 25 -6 -4 -8 -11 -5 -16 7 -10 -8 -12
-19 -2 -3 4 -13 8 -21 9 -12 2 -15 -9 -15 -47 0 -27 -4 -49 -8 -49 -4 0 -6 16
-4 35 3 23 0 35 -8 35 -8 0 -10 9 -6 25 6 25 -9 36 -16 13 -3 -8 -11 -7 -28 5
-34 24 -60 22 -53 -3 4 -14 0 -20 -12 -20 -13 0 -16 6 -11 25 6 22 3 25 -22
25 -15 0 -33 -5 -39 -11 -9 -9 -14 -3 -21 22 l-8 34 -8 -45 c-6 -38 -9 -42
-18 -27 -5 10 -7 30 -4 45 3 15 3 21 0 15 -8 -18 -27 -16 -21 1 8 20 -13 35
-51 38 -35 2 -38 7 -19 27 10 11 9 12 -2 6 -11 -6 -13 -4 -8 7 4 12 1 14 -14
11 -10 -3 -19 0 -19 6 0 7 -8 8 -26 1 -44 -17 -54 -13 -48 19 3 16 1 32 -5 35
-5 4 -7 14 -4 22 3 9 1 19 -5 23 -14 9 -3 61 14 61 8 0 14 5 14 10 0 6 7 10
15 10 11 0 15 12 14 48 0 32 -3 41 -8 28 -7 -18 -8 -18 -14 -3 -4 11 -19 18
-39 18 l-33 2 30 4 c58 7 75 13 75 28 0 8 5 15 11 15 5 0 7 -5 3 -11 -4 -7 1
-10 12 -7 14 2 20 14 22 46 3 39 1 42 -22 42 -16 0 -26 -6 -26 -15 0 -11 -11
-15 -40 -15 -22 0 -40 5 -40 10 0 6 -11 10 -25 10 -18 0 -26 -7 -31 -25 -6
-25 -7 -25 -120 -25 -93 0 -116 3 -120 15 -4 9 -19 15 -35 15 -16 0 -29 5 -29
10 0 6 -7 10 -15 10 -8 0 -15 -4 -15 -10 0 -6 -18 -7 -45 -3 l-45 6 0 -42 c0
-24 -6 -49 -15 -57 -8 -9 -15 -24 -15 -34 0 -28 -18 -34 -47 -15 -24 16 -27
16 -38 1 -14 -19 -29 -22 -20 -3 4 6 -1 3 -9 -7 -22 -27 -31 -13 -32 47 -2
101 -3 107 -19 101 -14 -6 -15 73 -14 727 1 468 6 741 12 754 5 10 9 47 8 82
-1 34 3 72 9 83 8 15 8 20 -2 20 -7 0 -24 19 -36 41 -13 23 -18 38 -10 33 11
-6 10 -5 -1 9 -9 12 -10 17 -2 17 7 0 9 5 5 11 -3 6 -6 52 -5 102 2 113 2 107
-2 187 -1 36 0 82 4 102 3 21 2 41 -4 47 -8 8 -8 11 -1 11 12 0 12 75 1 86 -4
4 -2 13 4 20 11 14 2 64 -12 64 -6 0 -5 -8 0 -19 8 -15 7 -20 -5 -25 -12 -5
-14 -13 -9 -34 4 -18 3 -24 -3 -17 -6 6 -12 28 -15 50 -5 36 -4 38 8 21 13
-18 14 -17 12 12 -1 16 -5 28 -9 26 -4 -2 -9 0 -13 6 -3 5 -1 10 5 10 8 0 9 7
5 18 -4 9 -7 26 -7 36 1 11 -13 33 -29 49 -27 25 -30 34 -24 63 3 19 2 34 -3
34 -5 0 -12 18 -16 39 -3 22 -12 41 -18 43 -8 3 -13 24 -13 56 0 28 -2 46 -6
41 -5 -9 -17 13 -23 43 0 3 -4 10 -8 14 -4 4 -2 14 5 23 10 14 10 14 -3 5 -42
-30 -45 -26 -45 65 1 88 9 131 26 131 5 0 9 -20 9 -44 0 -25 4 -47 9 -50 16
-10 28 18 20 49 -3 17 -7 26 -8 20 -3 -14 -31 66 -31 88 0 10 -4 15 -10 12 -9
-6 -15 30 -11 64 2 7 -2 10 -8 6 -7 -3 -8 0 -5 9 3 9 1 16 -6 16 -6 0 -9 4 -5
9 3 5 1 12 -3 15 -5 3 -8 21 -6 41 1 19 -2 35 -7 35 -6 0 -7 5 -4 10 3 6 2 10
-3 10 -5 0 -9 6 -10 13 -1 15 -10 71 -19 117 -10 50 -10 55 -18 155 -4 50 -9
93 -11 97 -2 3 2 9 8 11 9 4 10 8 2 14 -6 4 -10 17 -9 29 1 11 -2 29 -6 40 -5
13 -8 7 -8 -23z m34 -443 c3 -5 1 -10 -4 -10 -6 0 -11 5 -11 10 0 6 2 10 4 10
3 0 8 -4 11 -10z m-138 -357 c-3 -10 -5 -4 -5 12 0 17 2 24 5 18 2 -7 2 -21 0
-30z m39 -2 c11 9 14 8 15 -2 1 -8 5 -3 9 11 6 19 8 9 9 -37 1 -43 5 -63 14
-64 10 0 10 -2 0 -6 -7 -2 -14 -21 -15 -41 -1 -20 -4 -1 -7 43 -5 62 -9 80
-21 80 -11 0 -15 -14 -17 -60 -1 -38 1 -53 6 -40 7 17 9 16 14 -10 3 -17 1
-34 -4 -39 -6 -6 -9 -3 -9 8 0 9 -4 14 -10 11 -6 -4 -9 29 -9 92 1 54 4 85 6
70 4 -23 7 -26 19 -16z m63 8 c2 49 14 10 12 -44 -1 -38 3 -55 12 -55 8 0 8
-3 -2 -9 -8 -5 -12 -18 -8 -30 3 -12 1 -21 -4 -21 -5 0 -9 29 -9 64 0 36 -4
68 -10 71 -5 3 -9 18 -9 33 l1 27 8 -30 c7 -27 8 -27 9 -6z m92 11 c4 15 7
-17 6 -75 -1 -79 -2 -85 -4 -30 -2 39 -8 74 -14 80 -5 5 -8 18 -8 30 1 16 3
15 7 -5 l5 -25 8 25z m-218 -181 c-4 -5 -6 38 -3 94 l5 102 3 -94 c1 -52 -1
-98 -5 -102z m197 76 c15 9 12 -15 -4 -31 -12 -12 -15 -5 -18 49 -2 34 -1 71
2 82 3 11 6 -8 8 -43 2 -36 7 -60 12 -57z m10 -54 c0 -5 -7 -12 -16 -15 -14
-5 -15 -4 -4 9 14 17 20 19 20 6z m-2257 -52 c-6 -6 -8 -29 -6 -53 5 -41 5
-42 -25 -41 -44 1 -49 12 -19 35 15 12 26 24 25 28 -3 10 25 52 31 46 3 -2 0
-9 -6 -15z m-108 -49 c-7 -11 -65 -43 -65 -36 0 4 62 45 68 46 2 0 0 -5 -3
-10z m250 -30 c7 0 20 -9 31 -21 18 -20 18 -20 -11 -13 -16 4 -35 7 -42 7 -7
0 -13 8 -13 18 0 10 -4 21 -10 24 -5 3 -10 11 -10 16 0 5 10 1 22 -11 12 -11
27 -20 33 -20z m-110 0 c3 -5 1 -10 -4 -10 -6 0 -11 5 -11 10 0 6 2 10 4 10 3
0 8 -4 11 -10z m2319 -6 c3 -8 2 -12 -4 -9 -6 3 -10 10 -10 16 0 14 7 11 14
-7z m-2444 -64 c0 -5 -5 -10 -11 -10 -5 0 -7 5 -4 10 3 6 8 10 11 10 2 0 4 -4
4 -10z m2489 -45 c0 -20 0 -20 -14 -1 -8 11 -15 29 -15 40 0 20 0 20 15 0 8
-10 14 -28 14 -39z m-2544 15 c3 -5 1 -10 -4 -10 -6 0 -11 5 -11 10 0 6 2 10
4 10 3 0 8 -4 11 -10z m2461 -76 c-13 -12 -16 -12 -16 -2 0 19 24 42 28 28 2
-5 -4 -17 -12 -26z m-249 -6 c-3 -7 -5 -2 -5 12 0 14 2 19 5 13 2 -7 2 -19 0
-25z m156 12 c3 -11 1 -20 -4 -20 -5 0 -9 2 -9 4 0 2 -3 11 -6 20 -3 9 -2 16
4 16 5 0 12 -9 15 -20z m-224 -13 c8 -10 7 -14 -2 -14 -8 0 -14 6 -14 14 0 7
1 13 2 13 2 0 8 -6 14 -13z m181 -72 c0 -8 -4 -15 -10 -15 -5 0 -10 7 -10 15
0 8 5 15 10 15 6 0 10 -7 10 -15z m60 5 c0 -5 -4 -10 -10 -10 -5 0 -10 5 -10
10 0 6 5 10 10 10 6 0 10 -4 10 -10z m229 -55 c3 -6 -2 -2 -11 8 -10 11 -15
24 -11 31 5 7 9 4 11 -9 2 -11 7 -25 11 -30z m-2537 1 c7 -13 37 -42 65 -65
57 -44 102 -111 67 -97 -11 5 -28 9 -39 11 -11 2 -29 6 -40 9 -11 2 -26 5 -33
5 -7 1 -11 5 -8 10 4 5 -3 38 -14 73 -11 34 -20 66 -20 71 0 14 9 7 22 -17z
m2269 8 c-20 -15 -22 -23 -19 -79 2 -45 0 -61 -8 -54 -6 5 -10 33 -9 61 1 29
-2 58 -7 65 -7 8 -3 10 11 6 12 -3 21 -1 21 6 0 6 8 11 17 11 14 0 13 -3 -6
-16z m76 10 c-3 -3 -12 -4 -19 -1 -8 3 -5 6 6 6 11 1 17 -2 13 -5z m91 -34 c1
-22 3 -45 4 -51 2 -6 -4 -14 -12 -16 -13 -4 -13 -3 0 6 11 8 12 11 2 11 -10 0
-12 11 -8 43 6 51 5 47 9 47 2 0 4 -18 5 -40z m55 33 c-7 -2 -21 -2 -30 0 -10
3 -4 5 12 5 17 0 24 -2 18 -5z m-491 -90 c3 -45 1 -63 -8 -63 -15 0 -26 28
-14 35 16 10 11 25 -7 25 -15 0 -16 -2 -3 -10 9 -6 10 -10 3 -10 -23 0 -25 21
-2 27 21 6 22 7 3 13 -12 4 -23 2 -30 -8 -9 -13 -11 -13 -11 2 0 15 10 21 31
17 15 -3 26 22 20 44 -4 15 -3 17 4 5 5 -8 12 -43 14 -77z m70 75 c-15 -15
-16 -32 -1 -22 8 4 8 1 1 -13 -6 -10 -9 -38 -7 -61 2 -23 -1 -42 -5 -42 -14 0
-18 14 -11 34 4 11 4 38 1 62 -4 24 -3 41 1 38 4 -2 10 0 14 6 3 5 9 10 13 10
3 0 1 -5 -6 -12z m57 4 c13 10 14 10 4 -2 -19 -21 -16 -34 5 -19 14 11 15 11
5 -1 -7 -8 -13 -38 -13 -68 0 -38 -4 -52 -12 -49 -9 2 -12 22 -10 61 2 35 -2
64 -9 74 -11 14 -11 15 1 5 10 -10 17 -10 29 -1z m63 -13 c2 -5 1 -39 -2 -75
-6 -65 -6 -65 19 -61 14 3 30 3 37 0 14 -5 7 -33 -8 -33 -5 0 -7 4 -3 9 3 5 1
12 -5 16 -5 3 -10 2 -10 -4 0 -6 -7 -7 -17 -4 -11 4 -14 3 -9 -5 4 -7 1 -12
-9 -12 -9 0 -14 4 -10 9 3 5 1 12 -5 16 -5 3 -10 2 -10 -3 0 -6 -10 -8 -22 -4
-14 3 -19 2 -14 -6 4 -7 2 -12 -3 -12 -6 0 -11 7 -11 15 0 8 -4 15 -10 15 -5
0 -10 -5 -10 -11 0 -5 -4 -8 -9 -5 -5 3 -12 -2 -15 -11 -5 -12 -9 -14 -18 -5
-14 14 -20 44 -7 36 5 -3 7 -9 4 -14 -3 -5 7 -3 22 5 15 8 37 12 49 9 13 -3
32 -3 43 1 16 5 18 10 11 30 -5 12 -7 25 -4 27 2 3 5 23 6 46 1 39 12 56 20
31z m120 -22 c-2 -19 1 -50 6 -70 8 -28 7 -35 -3 -31 -12 5 -25 100 -17 124 8
23 18 7 14 -23z m66 -33 c2 -37 -1 -63 -6 -60 -11 7 -16 126 -5 126 4 0 9 -30
11 -66z m108 21 c1 -14 -4 -25 -11 -25 -8 0 -10 9 -7 25 6 32 17 32 18 0z
m-2626 -10 c0 -2 -12 -11 -27 -19 -16 -8 -23 -15 -16 -16 6 0 9 -9 6 -20 -5
-19 -62 -45 -83 -38 -19 6 21 48 68 73 53 27 52 27 52 20z m2088 -66 c-3 -8
-7 -3 -11 10 -4 17 -3 21 5 13 5 -5 8 -16 6 -23z m512 6 c0 -30 -15 -33 -30
-5 -6 12 -7 20 -1 20 5 0 12 -8 14 -17 4 -14 5 -12 6 5 1 30 11 28 11 -3z
m-122 -43 c-10 -2 -18 -7 -18 -12 0 -12 -28 -6 -43 10 -10 12 -9 12 6 1 15
-12 21 -9 19 10 -1 3 11 4 26 1 19 -4 22 -7 10 -10z m42 -2 c0 -11 -4 -20 -8
-20 -4 0 -8 9 -9 20 -1 11 2 20 8 20 5 0 9 -9 9 -20z m52 5 c12 -16 9 -21 -11
-22 -13 -1 -19 4 -18 17 1 19 17 22 29 5z m-522 -25 c0 -5 -2 -10 -4 -10 -3 0
-8 5 -11 10 -3 6 -1 10 4 10 6 0 11 -4 11 -10z m-1719 -37 c13 -16 12 -17 -3
-4 -10 7 -18 15 -18 17 0 8 8 3 21 -13z m1889 13 c0 -2 -6 -9 -14 -15 -11 -9
-16 -9 -22 0 -4 7 -3 9 4 5 6 -3 13 -2 17 4 6 10 15 14 15 6z m35 -6 c-3 -5
-12 -10 -18 -10 -7 0 -6 4 3 10 19 12 23 12 15 0z m225 6 c0 -3 -4 -8 -10 -11
-5 -3 -10 -1 -10 4 0 6 5 11 10 11 6 0 10 -2 10 -4z m-140 -12 c0 -8 -19 -13
-24 -6 -3 5 1 9 9 9 8 0 15 -2 15 -3z m233 -56 c3 -25 1 -52 -4 -59 -5 -9 -9
10 -9 50 0 73 7 78 13 9z m-454 -60 c0 -57 -4 -92 -8 -78 -7 26 -3 180 5 180
2 0 4 -46 3 -102z m206 82 c-3 -5 -15 -10 -26 -10 -30 0 -73 -25 -106 -63
l-30 -34 1 27 c1 17 6 27 16 26 8 -1 14 7 14 16 -1 10 4 14 12 11 8 -3 25 2
37 10 20 13 37 18 80 26 5 0 5 -3 2 -9z m214 -192 c-1 -112 -4 -194 -6 -183
-3 11 -10 26 -17 34 -8 12 -8 13 2 7 8 -5 12 2 12 24 0 20 -4 29 -11 24 -8 -4
-8 0 0 15 8 14 8 21 1 21 -5 0 -10 -7 -10 -15 0 -18 -4 -18 -33 -4 -16 8 -14
4 7 -13 l28 -24 -42 -37 c-30 -28 -46 -36 -62 -31 -13 4 -18 2 -14 -4 3 -5 -1
-12 -9 -15 -8 -4 -12 -1 -9 6 3 8 -13 12 -55 12 -32 0 -57 -3 -54 -7 2 -5 14
-9 26 -9 18 -1 18 -2 4 -6 -21 -5 -46 12 -43 30 3 19 17 38 24 33 4 -2 8 7 8
20 2 33 -12 30 -25 -6 -10 -30 -25 -38 -35 -21 -3 5 1 14 9 21 11 9 12 16 2
31 -10 16 -9 21 3 29 8 5 10 10 4 10 -6 0 -23 -9 -37 -20 -26 -20 -26 -20 -36
-1 -15 27 -14 61 2 62 10 0 10 2 0 6 -16 6 -17 32 -3 68 10 25 10 25 37 9 l28
-16 -25 20 -25 21 28 28 c27 27 28 28 43 9 12 -17 16 -18 27 -6 7 7 7 10 1 7
-7 -4 -17 0 -24 8 -18 22 31 38 102 33 63 -5 78 -12 60 -30 -7 -7 -12 -17 -12
-22 0 -6 7 0 16 13 l16 22 25 -23 c36 -33 58 -79 43 -88 -8 -5 -7 -9 5 -14 14
-5 16 -2 12 16 -2 13 -8 32 -12 42 -6 14 -5 17 3 12 9 -5 12 7 12 43 0 50 -14
61 -41 34 -14 -14 -4 -44 13 -39 7 1 10 1 6 -1 -4 -2 -4 -12 -2 -21 5 -13 2
-13 -13 3 -30 34 -51 47 -106 65 l-52 17 103 2 102 1 -1 -202z m-388 60 c0
-92 4 -131 16 -157 16 -31 17 -32 24 -12 10 24 22 27 38 7 9 -10 7 -17 -6 -27
-11 -9 -14 -10 -9 -2 5 9 2 11 -10 6 -15 -5 -13 -10 12 -32 16 -13 22 -22 13
-19 -9 4 -22 1 -28 -5 -8 -8 -9 -5 -7 10 3 12 -7 32 -24 50 -28 29 -28 31 -29
174 -1 79 1 140 4 137 4 -3 7 -62 6 -130z m36 126 c-3 -3 -12 -4 -19 -1 -8 3
-5 6 6 6 11 1 17 -2 13 -5z m-1807 -14 c0 -13 -28 -25 -38 -16 -3 4 0 11 8 16
20 13 30 12 30 0z m1800 -10 c0 -5 -5 -10 -11 -10 -5 0 -7 5 -4 10 3 6 8 10
11 10 2 0 4 -4 4 -10z m335 0 c3 -5 1 -10 -4 -10 -6 0 -11 5 -11 10 0 6 2 10
4 10 3 0 8 -4 11 -10z m-2081 -142 c4 7 12 10 17 6 20 -12 -5 -24 -42 -20 -21
2 -39 0 -39 -4 0 -5 15 -11 33 -13 24 -3 20 -4 -16 -5 -27 -1 -46 2 -43 7 3 5
-1 11 -9 15 -22 8 -18 60 6 87 l20 24 -4 -42 c-3 -24 -1 -43 4 -43 5 0 9 6 10
13 1 21 7 48 14 65 5 12 13 -1 24 -43 11 -35 20 -54 25 -47z m2256 62 c0 -22
-3 -40 -7 -40 -5 0 -8 18 -8 40 -1 22 3 40 7 40 4 0 8 -18 8 -40z m-674 -14
c-1 -63 -16 -70 -16 -8 0 29 4 52 8 52 5 0 8 -20 8 -44z m559 -20 c0 -19 -3
-33 -7 -30 -4 3 -8 21 -8 41 0 45 13 35 15 -11z m-513 -68 c-6 -6 -8 -1 -7 14
3 32 7 36 12 14 3 -10 1 -22 -5 -28z m-1582 2 c0 -5 -5 -10 -11 -10 -5 0 -7 5
-4 10 3 6 8 10 11 10 2 0 4 -4 4 -10z m1527 -22 c-3 -8 -6 -5 -6 6 -1 11 2 17
5 13 3 -3 4 -12 1 -19z m564 -55 c-4 -94 -11 -93 -11 2 0 43 3 75 7 72 3 -4 5
-37 4 -74z m66 55 c-3 -8 -6 -5 -6 6 -1 11 2 17 5 13 3 -3 4 -12 1 -19z m-517
-64 c0 -36 -4 -63 -8 -60 -4 2 -7 29 -6 58 3 68 3 68 9 68 3 0 5 -30 5 -66z
m564 8 c3 -5 -1 -9 -9 -9 -8 0 -12 4 -9 9 3 4 7 8 9 8 2 0 6 -4 9 -8z m-2263
-49 l1 -38 10 38 10 38 52 -3 51 -3 -3 -85 c-2 -47 -9 -128 -15 -180 l-13 -95
-39 2 c-21 2 -42 8 -47 15 -4 7 -5 47 -2 88 3 41 2 71 -3 67 -4 -5 -10 -43
-13 -85 l-5 -77 -30 3 c-16 2 -31 5 -33 7 -6 6 -30 172 -37 258 l-7 87 61 0
61 0 1 -37z m1726 -25 c-2 -13 -4 -3 -4 22 0 25 2 35 4 23 2 -13 2 -33 0 -45z
m-77 2 c0 -5 -5 -10 -11 -10 -5 0 -7 5 -4 10 3 6 8 10 11 10 2 0 4 -4 4 -10z
m440 0 c0 -5 -5 -10 -11 -10 -5 0 -7 5 -4 10 3 6 8 10 11 10 2 0 4 -4 4 -10z
m-398 -42 c-7 -7 -10 -5 -7 8 5 29 6 30 12 16 3 -8 1 -18 -5 -24z m463 23 c3
-5 2 -12 -3 -15 -5 -3 -9 1 -9 9 0 17 3 19 12 6z m-58 -7 c-3 -3 -12 -4 -19
-1 -8 3 -5 6 6 6 11 1 17 -2 13 -5z m-289 -11 c-15 -2 -42 -2 -60 0 -18 2 -6
4 27 4 33 0 48 -2 33 -4z m262 -30 c0 -2 -15 -4 -32 -3 -18 1 -35 1 -38 1 -24
-6 -290 -5 -290 1 0 4 66 9 148 10 146 3 212 0 212 -9z m53 0 c-7 -2 -21 -2
-30 0 -10 3 -4 5 12 5 17 0 24 -2 18 -5z m-2533 -28 c9 -10 9 -15 1 -15 -6 0
-11 5 -11 11 0 5 -4 8 -9 4 -5 -3 -12 -1 -16 5 -10 16 21 12 35 -5z m40 -1 c0
-14 -3 -14 -15 -4 -8 7 -15 14 -15 16 0 2 7 4 15 4 8 0 15 -7 15 -16z m58 -1
c-2 -10 -10 -18 -18 -18 -8 0 -16 8 -18 18 -2 12 3 17 18 17 15 0 20 -5 18
-17z m65 -1 c13 -14 14 -21 5 -30 -19 -19 1 -14 32 8 17 12 31 16 35 10 3 -5
-5 -12 -19 -16 -13 -3 -34 -17 -47 -30 -18 -19 -25 -22 -38 -11 -8 7 -12 7 -8
1 3 -6 0 -20 -8 -30 -14 -18 -15 -16 -13 21 3 34 7 40 28 43 39 6 49 22 12 22
-24 0 -30 4 -26 15 8 20 27 19 47 -3z m2264 -89 c-2 -16 -4 -3 -4 27 0 30 2
43 4 28 2 -16 2 -40 0 -55z m-2399 52 c2 -2 2 -12 0 -22 -3 -17 -6 -16 -27 10
l-25 29 25 -7 c13 -4 25 -9 27 -10z m62 -35 c0 -31 -3 -38 -15 -34 -8 4 -12
10 -9 15 3 5 0 9 -5 9 -12 0 -15 33 -4 43 18 19 33 5 33 -33z m1917 18 c-3 -8
-6 -5 -6 6 -1 11 2 17 5 13 3 -3 4 -12 1 -19z m103 7 c0 -8 -4 -15 -10 -15 -5
0 -7 7 -4 15 4 8 8 15 10 15 2 0 4 -7 4 -15z m127 -17 c-3 -7 -5 -2 -5 12 0
14 2 19 5 13 2 -7 2 -19 0 -25z m250 10 c-3 -8 -6 -5 -6 6 -1 11 2 17 5 13 3
-3 4 -12 1 -19z m-427 8 c0 -3 -4 -8 -10 -11 -5 -3 -10 -1 -10 4 0 6 5 11 10
11 6 0 10 -2 10 -4z m-33 -38 c-3 -7 -5 -2 -5 12 0 14 2 19 5 13 2 -7 2 -19 0
-25z m50 10 c-3 -8 -6 -5 -6 6 -1 11 2 17 5 13 3 -3 4 -12 1 -19z m-74 -49
c-6 -6 -7 3 -4 23 4 28 6 29 9 9 2 -13 0 -27 -5 -32z m104 19 c-3 -7 -5 -2 -5
12 0 14 2 19 5 13 2 -7 2 -19 0 -25z m245 -10 c-8 -8 -9 -4 -5 13 4 13 8 18
11 10 2 -7 -1 -18 -6 -23z m378 -142 c0 -6 -11 6 -25 26 -14 20 -25 40 -25 44
0 5 11 -7 25 -26 14 -19 25 -39 25 -44z m-100 44 c12 -8 11 -10 -7 -10 -13 0
-23 5 -23 10 0 13 11 13 30 0z m-2244 -17 c-3 -10 -8 -36 -12 -58 l-7 -40 -13
35 c-21 59 -18 80 12 80 19 0 24 -4 20 -17z m1677 9 c3 -4 -1 -24 -7 -44 -12
-32 -11 -36 3 -31 11 3 10 1 -3 -7 -21 -14 -36 0 -36 34 0 14 3 16 13 8 10 -8
13 -6 13 9 0 10 -4 19 -8 19 -4 0 -8 5 -8 10 0 12 27 14 33 2z m36 -19 c0 -25
-1 -26 -9 -8 -12 27 -12 35 0 35 6 0 10 -12 9 -27z m571 12 c0 -8 -4 -15 -8
-15 -5 0 -9 7 -9 15 0 8 4 15 9 15 4 0 8 -7 8 -15z m-2528 -37 c-4 -15 -2 -19
7 -13 10 6 11 2 6 -15 -5 -17 -4 -21 5 -15 9 5 11 4 6 -3 -4 -7 -2 -12 4 -12
7 0 9 -8 5 -20 -4 -11 -2 -20 4 -20 6 0 11 -12 11 -27 0 -16 4 -35 9 -42 14
-22 -6 -51 -35 -51 -21 0 -25 4 -23 23 2 12 0 28 -4 35 -5 7 -3 12 7 12 9 0
16 2 16 4 0 2 3 13 7 23 6 17 5 17 -15 -1 -12 -11 -22 -14 -22 -8 0 7 5 12 10
12 6 0 10 14 10 30 0 17 -4 30 -10 30 -5 0 -10 6 -10 13 0 10 -12 13 -40 11
-22 -1 -38 2 -34 7 3 5 18 9 34 9 23 0 28 3 23 17 -4 11 -3 14 5 9 7 -4 12 -2
12 3 0 6 4 11 9 11 5 0 7 -10 3 -22z m2491 9 c-4 -6 3 -8 15 -5 17 5 22 2 22
-14 0 -17 -3 -18 -15 -8 -8 6 -18 9 -24 6 -5 -4 -11 2 -14 11 -3 14 -7 10 -19
-15 -17 -37 -26 -35 -20 6 3 24 9 28 32 28 16 0 26 -4 23 -9z m-528 -46 c1
-12 -3 -17 -12 -14 -15 6 -15 6 -7 28 8 19 17 12 19 -14z m132 -13 c-3 -8 -6
-5 -6 6 -1 11 2 17 5 13 3 -3 4 -12 1 -19z m123 12 c0 -5 -5 -10 -11 -10 -5 0
-7 5 -4 10 3 6 8 10 11 10 2 0 4 -4 4 -10z m306 -40 c1 -28 -3 -40 -13 -40
-10 0 -11 5 -4 18 6 10 7 28 4 40 -3 12 -1 22 4 22 4 0 9 -18 9 -40z m-2556
-5 c4 3 8 -5 8 -18 0 -12 4 -44 8 -72 9 -59 10 -142 1 -170 -3 -11 -6 -23 -6
-27 -1 -5 -6 -8 -12 -8 -13 0 -10 158 3 167 7 3 6 8 0 12 -5 3 -12 38 -16 76
-3 39 -3 62 0 52 3 -9 9 -15 14 -12z m2520 19 c0 -3 -5 -15 -11 -26 -9 -17
-13 -18 -20 -7 -7 11 -9 9 -9 -7 0 -12 -8 -31 -19 -43 -16 -18 -20 -19 -25 -6
-3 9 -2 13 4 10 5 -3 13 2 19 12 11 22 11 33 1 53 -6 12 -1 15 26 17 19 1 34
0 34 -3z m-560 -18 c6 -8 19 -12 28 -9 15 4 15 3 2 -6 -10 -7 -11 -11 -2 -11
6 0 12 -11 12 -25 0 -17 -4 -23 -15 -19 -8 4 -13 10 -10 14 7 11 -31 51 -40
42 -5 -4 -4 -1 0 7 6 11 4 13 -9 8 -10 -4 -15 -3 -11 3 9 14 31 12 45 -4z
m293 -6 c3 -11 1 -18 -4 -14 -5 3 -9 12 -9 20 0 20 7 17 13 -6z m-3233 -47 c0
-24 -3 -33 -8 -25 -5 7 -7 23 -6 35 3 27 3 27 9 27 3 0 5 -17 5 -37z m30 -5
c0 -45 -8 -47 -16 -4 -4 25 1 46 12 46 2 0 4 -19 4 -42z m3020 14 c0 -15 -2
-15 -10 -2 -8 13 -10 12 -10 -2 0 -10 -4 -18 -10 -18 -6 0 -5 10 2 25 12 26
28 25 28 -3z m130 -17 c0 -11 -4 -27 -9 -34 -7 -10 -9 0 -8 31 2 43 17 46 17
3z m417 -17 c-2 -13 -4 -5 -4 17 -1 22 1 32 4 23 2 -10 2 -28 0 -40z m-4170 5
c-3 -10 -5 -4 -5 12 0 17 2 24 5 18 2 -7 2 -21 0 -30z m1468 27 c3 -5 1 -10
-4 -10 -6 0 -11 5 -11 10 0 6 2 10 4 10 3 0 8 -4 11 -10z m2032 -12 c-3 -8 -6
-5 -6 6 -1 11 2 17 5 13 3 -3 4 -12 1 -19z m179 -4 c-4 -9 -9 -15 -11 -12 -3
3 -3 13 1 22 4 9 9 15 11 12 3 -3 3 -13 -1 -22z m140 -10 c8 3 14 1 14 -4 0
-6 -4 -10 -8 -10 -5 0 -14 -10 -21 -22 -6 -13 -9 -15 -7 -5 7 22 -3 49 -15 41
-5 -3 -9 -1 -9 5 0 16 25 19 28 4 2 -8 10 -12 18 -9z m-2316 12 c0 -3 -4 -8
-10 -11 -5 -3 -10 -1 -10 4 0 6 5 11 10 11 6 0 10 -2 10 -4z m2117 -38 c-3 -8
-6 -5 -6 6 -1 11 2 17 5 13 3 -3 4 -12 1 -19z m356 15 c-7 -2 -13 -12 -13 -20
0 -9 -3 -14 -6 -10 -10 10 4 37 18 36 10 0 10 -2 1 -6z m65 -18 c-3 -3 -9 2
-12 12 -6 14 -5 15 5 6 7 -7 10 -15 7 -18z m45 8 c-3 -7 -6 -13 -8 -13 -2 0
-5 6 -8 13 -3 8 1 14 8 14 7 0 11 -6 8 -14z m-567 -8 c18 -15 17 -16 -13 -10
-25 5 -32 3 -36 -12 -3 -12 -5 -9 -6 10 -1 31 23 37 55 12z m508 -11 c3 -8 2
-12 -4 -9 -6 3 -10 10 -10 16 0 14 7 11 14 -7z m79 -65 c-5 -5 -6 11 -3 34 4
41 5 41 8 8 2 -18 0 -37 -5 -42z m-1946 39 c-3 -8 -6 -5 -6 6 -1 11 2 17 5 13
3 -3 4 -12 1 -19z m1390 -12 c-2 -37 -17 -39 -17 -2 0 20 7 36 16 36 1 0 2
-15 1 -34z m500 12 c-3 -8 -6 -5 -6 6 -1 11 2 17 5 13 3 -3 4 -12 1 -19z
m-537 2 c0 -5 -7 -10 -16 -10 -8 0 -12 5 -9 10 3 6 10 10 16 10 5 0 9 -4 9
-10z m170 -6 c0 -8 -5 -12 -10 -9 -6 4 -8 11 -5 16 9 14 15 11 15 -7z m70 -26
c0 -39 -12 -29 -17 13 -2 18 1 28 7 24 6 -3 10 -20 10 -37z m-2090 3 c0 -26
-18 -39 -46 -33 -17 3 -23 9 -20 19 3 8 6 19 6 24 0 5 5 9 11 9 6 0 9 -7 5
-15 -3 -8 -2 -15 3 -15 5 0 11 9 14 21 6 24 27 17 27 -10z m1957 -3 c-3 -7 -5
-2 -5 12 0 14 2 19 5 13 2 -7 2 -19 0 -25z m190 10 c-3 -8 -6 -5 -6 6 -1 11 2
17 5 13 3 -3 4 -12 1 -19z m360 -45 c-2 -16 -4 -5 -4 22 0 28 2 40 4 28 2 -13
2 -35 0 -50z m-3260 10 c-3 -10 -5 -2 -5 17 0 19 2 27 5 18 2 -10 2 -26 0 -35z
m1253 5 c0 -18 -5 -40 -10 -48 -7 -11 -10 -2 -10 33 0 26 5 47 10 47 6 0 10
-15 10 -32z m-1760 18 c0 -3 -4 -8 -10 -11 -5 -3 -10 -1 -10 4 0 6 5 11 10 11
6 0 10 -2 10 -4z m1057 -78 c-2 -18 -4 -6 -4 27 0 33 2 48 4 33 2 -15 2 -42 0
-60z m40 0 c-2 -18 -4 -6 -4 27 0 33 2 48 4 33 2 -15 2 -42 0 -60z m473 60 c0
-6 -6 -5 -15 2 -8 7 -15 14 -15 16 0 2 7 1 15 -2 8 -4 15 -11 15 -16z m1736
-85 c18 -13 17 -14 -10 -9 -17 3 -36 0 -43 -6 -9 -7 -13 -7 -13 0 0 6 5 12 10
14 6 2 11 14 11 28 1 14 4 36 7 50 4 21 6 18 12 -19 4 -26 15 -50 26 -58z
m274 87 c0 -5 -2 -10 -4 -10 -3 0 -8 5 -11 10 -3 6 -1 10 4 10 6 0 11 -4 11
-10z m-3983 -92 c-2 -18 -4 -6 -4 27 0 33 2 48 4 33 2 -15 2 -42 0 -60z m3513
70 c0 -7 -5 -20 -10 -28 -8 -12 -10 -9 -10 13 0 15 5 27 10 27 6 0 10 -6 10
-12z m112 -55 c-2 -7 -10 -13 -18 -13 -17 0 -18 34 -2 63 12 22 12 21 18 -8 4
-16 4 -36 2 -42z m188 47 c-8 -5 -10 -15 -5 -26 14 -34 13 -39 -14 -40 -14 -1
-20 1 -13 3 6 3 10 9 6 14 -3 5 -1 9 4 9 6 0 8 9 5 21 -3 12 -11 18 -19 15 -8
-3 -14 -1 -14 4 0 10 40 19 54 12 4 -3 2 -8 -4 -12z m238 4 c15 -15 16 -15 23
2 7 17 8 17 8 -3 1 -12 -3 -25 -9 -28 -5 -3 -10 0 -10 7 -1 9 -5 7 -14 -4 -7
-10 -16 -15 -19 -11 -11 10 -8 25 3 18 17 -11 11 7 -7 21 -12 9 -14 13 -5 14
7 0 21 -7 30 -16z m-2378 -30 c0 -21 -4 -24 -36 -24 -29 0 -35 3 -30 16 3 9 6
20 6 25 0 5 8 9 18 9 14 0 15 -2 2 -10 -10 -7 -11 -10 -2 -10 7 0 15 7 18 15
9 21 24 8 24 -21z m54 20 c4 -10 2 -13 -6 -8 -8 5 -9 1 -4 -12 4 -10 7 -66 6
-123 -1 -93 1 -103 14 -91 10 7 16 8 16 2 0 -6 16 -9 38 -7 49 4 62 -9 62 -63
0 -31 6 -49 18 -59 16 -13 16 -13 -3 -5 -22 11 -81 21 -137 24 -21 1 -38 6
-38 11 0 5 16 7 35 4 19 -3 33 -1 30 3 -6 10 -195 13 -195 3 0 -15 -68 -2 -74
13 -8 21 5 72 18 70 6 -1 17 -6 25 -10 10 -7 12 -6 6 4 -6 10 -4 12 8 7 10 -4
17 -2 17 5 0 7 5 6 15 -2 12 -10 19 -10 27 -2 7 7 27 12 45 12 39 0 42 12 9
33 -18 12 -26 13 -36 4 -10 -10 -12 -8 -6 6 3 10 6 23 6 29 0 6 9 8 19 5 12
-3 22 1 26 11 7 19 1 25 -30 25 -26 0 -31 12 -16 36 7 11 11 10 20 -5 9 -17
10 -17 11 -1 0 20 18 23 25 5 6 -15 14 -89 14 -131 1 -18 5 -26 12 -21 8 5 10
41 6 120 -5 97 -3 124 9 124 1 0 5 -7 8 -16z m2026 -44 c0 -20 -2 -22 -10 -10
-5 8 -10 26 -10 40 0 20 2 22 10 10 5 -8 10 -26 10 -40z m-1523 8 c-3 -7 -5
-2 -5 12 0 14 2 19 5 13 2 -7 2 -19 0 -25z m1653 2 c0 -6 10 -15 23 -20 21 -8
21 -9 -5 -7 -15 1 -25 3 -23 6 3 2 -3 10 -13 17 -16 13 -16 13 1 14 9 0 17 -5
17 -10z m287 -72 c-2 -18 -4 -6 -4 27 0 33 2 48 4 33 2 -15 2 -42 0 -60z
m-660 46 c-3 -3 -12 -4 -19 -1 -8 3 -5 6 6 6 11 1 17 -2 13 -5z m590 -36 c-3
-8 -6 -5 -6 6 -1 11 2 17 5 13 3 -3 4 -12 1 -19z m-420 -45 c-3 -10 -5 -2 -5
17 0 19 2 27 5 18 2 -10 2 -26 0 -35z m-3567 23 c0 -9 -30 -14 -35 -6 -4 6 3
10 14 10 12 0 21 -2 21 -4z m3995 -5 c10 -17 -12 -21 -25 -6 -10 12 -10 15 3
15 9 0 18 -4 22 -9z m-4005 -21 c0 -5 -8 -10 -17 -10 -15 0 -16 2 -3 10 19 12
20 12 20 0z m2050 -34 c0 -3 -4 -8 -10 -11 -5 -3 -10 -1 -10 4 0 6 5 11 10 11
6 0 10 -2 10 -4z m-2050 -32 c0 -8 -4 -12 -10 -9 -5 3 -10 13 -10 21 0 8 5 12
10 9 6 -3 10 -13 10 -21z m3647 1 c0 -8 -4 -15 -9 -15 -4 0 -8 7 -8 15 0 8 4
15 8 15 5 0 9 -7 9 -15z m283 -5 c0 -5 -4 -10 -10 -10 -5 0 -10 5 -10 10 0 6
5 10 10 10 6 0 10 -4 10 -10z m-1975 -20 c3 -5 1 -10 -4 -10 -6 0 -11 5 -11
10 0 6 2 10 4 10 3 0 8 -4 11 -10z m1765 -21 c0 -10 -6 -19 -12 -20 -10 0 -10
-2 0 -6 15 -6 16 -39 1 -49 -8 -5 -7 -10 4 -16 26 -14 21 -168 -4 -168 -6 0
-6 8 1 20 6 11 7 20 2 20 -6 0 -13 -10 -17 -22 -6 -19 -8 -20 -12 -6 -2 9 -10
15 -18 12 -7 -3 -15 0 -18 8 -2 7 -2 4 0 -7 2 -11 5 -24 6 -30 1 -5 -2 -12 -8
-15 -12 -6 -17 45 -9 80 l6 25 9 -24 9 -24 20 23 c11 13 20 18 20 12 0 -7 5
-12 12 -12 7 0 5 6 -4 18 -9 9 -19 35 -23 57 l-8 40 -12 -40 c-6 -22 -18 -41
-26 -43 -12 -2 -14 9 -12 55 1 32 2 68 2 81 1 12 5 22 10 22 4 0 6 -11 3 -25
-3 -16 0 -25 8 -25 7 0 10 -7 6 -15 -5 -13 -2 -14 15 -5 12 7 19 20 18 33 -3
31 11 78 22 71 5 -3 9 -14 9 -25z m-195 12 c3 -5 1 -12 -5 -16 -5 -3 -10 1
-10 9 0 18 6 21 15 7z m59 -71 c-2 -33 -6 -65 -9 -70 -3 -6 -2 -10 2 -10 5 0
9 -9 9 -20 0 -27 -5 -25 -17 6 -10 29 -1 183 11 165 3 -6 5 -38 4 -71z m66 70
c0 -5 -4 -10 -10 -10 -5 0 -10 5 -10 10 0 6 5 10 10 10 6 0 10 -4 10 -10z
m130 1 c0 -6 -4 -13 -10 -16 -5 -3 -10 1 -10 9 0 9 5 16 10 16 6 0 10 -4 10
-9z m52 -33 c-9 -9 -12 -7 -12 12 0 19 3 21 12 12 9 -9 9 -15 0 -24z m123 22
c-3 -5 -11 -10 -16 -10 -6 0 -7 5 -4 10 3 6 11 10 16 10 6 0 7 -4 4 -10z m112
-97 c-2 -21 -4 -4 -4 37 0 41 2 58 4 38 2 -21 2 -55 0 -75z m-170 83 c-3 -8 1
-20 9 -26 8 -7 14 -17 14 -23 0 -6 -7 -2 -16 9 -14 18 -15 18 -8 -6 6 -23 5
-24 -10 -9 -13 12 -15 21 -7 42 6 15 13 27 17 27 3 0 4 -6 1 -14z m-460 -18
c-3 -8 -6 -5 -6 6 -1 11 2 17 5 13 3 -3 4 -12 1 -19z m352 -96 c0 -58 -3 -80
-9 -67 -5 11 -9 16 -10 10 -2 -5 -6 4 -10 20 -8 33 -11 137 -3 118 2 -7 9 -13
15 -13 6 0 7 7 4 16 -3 8 -2 12 4 9 6 -3 10 -45 9 -93z m38 56 c-3 -7 -5 -2
-5 12 0 14 2 19 5 13 2 -7 2 -19 0 -25z m175 -13 c-2 -14 -8 -25 -13 -25 -12
0 -11 7 1 31 14 26 18 24 12 -6z m-2582 -5 c-36 -11 -52 -11 -45 0 3 6 21 10
38 9 31 -1 31 -1 7 -9z m2000 -15 c0 -2 -7 -5 -15 -9 -9 -3 -15 0 -15 9 0 9 6
12 15 9 8 -4 15 -7 15 -9z m416 -20 c-3 -13 -2 -25 2 -27 5 -2 3 -23 -4 -48
-13 -48 -17 -37 -16 45 1 63 1 67 13 59 6 -3 8 -17 5 -29z m57 20 c-3 -9 -8
-14 -10 -11 -3 3 -2 9 2 15 9 16 15 13 8 -4z m-363 -16 c0 -11 -4 -17 -10 -14
-5 3 -10 13 -10 21 0 8 5 14 10 14 6 0 10 -9 10 -21z m-1770 -9 c13 -8 13 -10
-2 -10 -9 0 -20 5 -23 10 -8 13 5 13 25 0z m2193 -3 c3 -8 -1 -14 -9 -14 -15
0 -18 9 -7 20 9 9 10 9 16 -6z m-1906 -3 c-3 -3 -12 -4 -19 -1 -8 3 -5 6 6 6
11 1 17 -2 13 -5z m-313 -10 c22 -8 20 -20 -2 -20 -10 0 -19 6 -19 13 0 15 0
15 21 7z m2333 -146 c-2 -29 -3 -8 -3 47 0 55 1 79 3 53 2 -26 2 -71 0 -100z
m-2076 91 c-9 -23 -10 -22 -10 11 -1 23 2 31 9 24 7 -7 7 -19 1 -35z m1906 21
c1 -11 -2 -20 -5 -20 -4 0 -8 9 -9 20 -1 11 2 20 5 20 4 0 8 -9 9 -20z m27 4
c3 -8 2 -12 -4 -9 -6 3 -10 10 -10 16 0 14 7 11 14 -7z m-527 -16 c-3 -8 -6
-5 -6 6 -1 11 2 17 5 13 3 -3 4 -12 1 -19z m-1332 2 c4 -6 -1 -7 -11 -3 -13 5
-15 2 -10 -14 5 -14 1 -23 -10 -27 -9 -4 -19 -4 -22 -1 -3 3 0 5 7 5 7 0 11 8
10 18 -1 9 -1 20 0 25 2 10 29 9 36 -3z m115 -16 c0 -2 -7 -4 -15 -4 -8 0 -15
4 -15 10 0 5 7 7 15 4 8 -4 15 -8 15 -10z m1410 -9 c0 -8 -7 -15 -15 -15 -9 0
-12 6 -9 15 4 8 10 15 15 15 5 0 9 -7 9 -15z m192 -15 c5 0 8 -6 5 -14 -3 -8
1 -22 8 -33 13 -17 14 -17 30 2 16 20 16 20 5 -2 -11 -24 -34 -30 -45 -13 -5
8 -11 7 -20 0 -8 -7 -22 -10 -32 -7 -14 4 -13 5 5 6 19 1 22 7 23 49 1 26 3
39 6 30 2 -10 9 -18 15 -18z m-2109 -39 c10 -12 9 -12 -10 0 -25 15 -26 19
-16 46 7 15 8 15 11 -7 2 -14 9 -31 15 -39z m327 35 c0 -3 -4 -8 -10 -11 -5
-3 -10 -1 -10 4 0 6 5 11 10 11 6 0 10 -2 10 -4z m1997 -18 c-3 -8 -6 -5 -6 6
-1 11 2 17 5 13 3 -3 4 -12 1 -19z m-1920 -20 c-3 -8 -6 -5 -6 6 -1 11 2 17 5
13 3 -3 4 -12 1 -19z m1453 2 c0 -5 -5 -10 -11 -10 -5 0 -7 5 -4 10 3 6 8 10
11 10 2 0 4 -4 4 -10z m-135 -20 c-3 -5 -16 -10 -28 -9 -20 1 -20 2 3 9 14 4
26 8 28 9 2 1 0 -3 -3 -9z m626 -7 c13 -17 13 -17 -6 -3 -11 8 -22 16 -24 17
-2 2 0 3 6 3 6 0 17 -8 24 -17z m-2371 -205 c-1 -117 2 -222 6 -233 7 -18 7
-19 -8 -4 -14 14 -17 46 -16 233 0 127 4 216 9 216 6 0 9 -86 9 -212z m1977
206 c-3 -3 -12 -4 -19 -1 -8 3 -5 6 6 6 11 1 17 -2 13 -5z m370 -46 c-3 -8 -6
-5 -6 6 -1 11 2 17 5 13 3 -3 4 -12 1 -19z m-1790 -10 c-3 -8 -6 -5 -6 6 -1
11 2 17 5 13 3 -3 4 -12 1 -19z m1750 -24 c-3 -3 -12 -4 -19 -1 -8 3 -5 6 6 6
11 1 17 -2 13 -5z m53 -4 c0 -5 -2 -10 -4 -10 -3 0 -8 5 -11 10 -3 6 -1 10 4
10 6 0 11 -4 11 -10z m-3870 -26 c0 -8 -5 -12 -10 -9 -6 4 -8 11 -5 16 9 14
15 11 15 -7z m3927 -16 c-3 -8 -6 -5 -6 6 -1 11 2 17 5 13 3 -3 4 -12 1 -19z
m-69 -32 c0 -21 -3 -23 -14 -11 -16 16 -19 29 -4 20 6 -3 10 -1 10 4 0 6 2 11
4 11 2 0 4 -11 4 -24z m-1728 -56 c0 -22 -4 -40 -10 -40 -5 0 -8 10 -6 23 3
12 5 30 5 40 2 35 11 16 11 -23z m1377 18 c-3 -8 -6 -5 -6 6 -1 11 2 17 5 13
3 -3 4 -12 1 -19z m-3230 -10 c-3 -8 -6 -5 -6 6 -1 11 2 17 5 13 3 -3 4 -12 1
-19z m1621 -14 c-3 -14 -5 -12 -10 9 -3 19 -2 25 4 19 6 -6 8 -18 6 -28z
m1916 27 c3 -5 -1 -11 -9 -14 -9 -4 -12 -1 -8 9 6 16 10 17 17 5z m-235 -28
c0 -25 -1 -26 -9 -8 -12 27 -12 35 0 35 6 0 10 -12 9 -27z m348 -106 c-2 -23
-3 -1 -3 48 0 50 1 68 3 42 2 -26 2 -67 0 -90z m-277 93 c0 -5 -5 -10 -11 -10
-5 0 -7 5 -4 10 3 6 8 10 11 10 2 0 4 -4 4 -10z m-143 -22 c-3 -8 -6 -5 -6 6
-1 11 2 17 5 13 3 -3 4 -12 1 -19z m-120 -35 c-3 -10 -5 -2 -5 17 0 19 2 27 5
18 2 -10 2 -26 0 -35z m377 23 c-3 -9 -10 -16 -15 -16 -6 0 -5 9 1 21 13 24
24 20 14 -5z m-1640 -12 c3 -8 2 -12 -4 -9 -6 3 -10 10 -10 16 0 14 7 11 14
-7z m1399 -1 c-7 -3 -14 -14 -14 -26 -1 -18 -2 -19 -6 -4 -5 19 16 52 26 41 3
-4 0 -9 -6 -11z m126 -20 c-1 -21 -3 -30 -6 -20 -2 9 -9 15 -14 12 -5 -4 -9
-1 -9 4 0 6 5 11 11 11 6 0 9 7 5 15 -3 8 -1 15 4 15 6 0 9 -17 9 -37z m-72 2
c0 -8 -4 -12 -9 -9 -5 3 -6 10 -3 15 9 13 12 11 12 -6z m140 -7 c-3 -8 -6 -5
-6 6 -1 11 2 17 5 13 3 -3 4 -12 1 -19z m83 12 c0 -5 -2 -10 -4 -10 -3 0 -8 5
-11 10 -3 6 -1 10 4 10 6 0 11 -4 11 -10z m-105 -9 c3 -5 2 -12 -3 -15 -5 -3
-9 1 -9 9 0 17 3 19 12 6z m93 -21 c7 -12 8 -20 2 -20 -5 0 -10 -7 -10 -16 0
-9 5 -12 12 -8 7 5 8 3 3 -5 -10 -18 -28 2 -23 25 2 11 -3 24 -12 31 -13 11
-13 12 0 13 8 0 21 -9 28 -20z m-205 -24 c3 -8 0 -19 -7 -25 -10 -9 -12 -6 -8
14 5 29 8 31 15 11z m-929 -35 c2 -17 0 -34 -5 -37 -5 -3 -9 14 -9 37 0 48 8
48 14 0z m995 -18 c0 -50 -2 -55 -11 -33 -14 33 -16 70 -4 63 5 -4 7 1 3 10
-3 10 -2 17 3 17 6 0 10 -26 9 -57z m71 47 c0 -5 -4 -10 -10 -10 -5 0 -10 5
-10 10 0 6 5 10 10 10 6 0 10 -4 10 -10z m-993 -40 c1 -11 -2 -22 -8 -25 -5
-4 -9 5 -9 19 0 30 15 35 17 6z m1012 -13 l25 -32 -26 24 c-15 12 -31 20 -37
17 -7 -4 -8 -1 -5 8 9 22 16 19 43 -17z m188 1 c-3 -8 -6 -5 -6 6 -1 11 2 17
5 13 3 -3 4 -12 1 -19z m-349 -25 c1 -22 0 -24 -8 -13 -12 18 -13 40 -2 40 4
0 9 -12 10 -27z m168 -5 c15 -13 25 -17 20 -10 -4 7 -2 12 4 12 6 0 8 4 5 10
-3 6 1 7 9 4 18 -7 21 -24 5 -24 -7 0 -9 -10 -5 -25 4 -16 2 -25 -5 -25 -6 0
-9 -7 -5 -15 3 -8 1 -15 -4 -15 -15 0 -12 -48 5 -74 13 -20 13 -25 0 -42 -8
-10 -15 -29 -15 -41 0 -12 -6 -28 -13 -35 -8 -7 -12 -19 -9 -26 2 -7 -5 -12
-20 -12 -18 0 -20 2 -8 10 12 8 12 10 -4 16 -14 5 -15 9 -4 15 10 7 9 9 -3 9
-30 0 -39 73 -13 101 15 16 14 17 -3 13 -16 -5 -18 0 -15 40 3 36 0 46 -16 55
-11 6 -22 7 -26 4 -3 -3 -6 -1 -6 5 0 7 15 11 35 10 19 -1 38 2 42 5 3 4 -1 7
-10 7 -21 0 -22 14 -1 34 20 21 26 20 60 -6z m-1876 8 c0 -11 -19 -15 -25 -6
-3 5 1 10 9 10 9 0 16 -2 16 -4z m30 -6 c0 -5 -2 -10 -4 -10 -3 0 -8 5 -11 10
-3 6 -1 10 4 10 6 0 11 -4 11 -10z m1607 -12 c-3 -8 -6 -5 -6 6 -1 11 2 17 5
13 3 -3 4 -12 1 -19z m353 18 c0 -2 -7 -7 -16 -10 -8 -3 -12 -2 -9 4 6 10 25
14 25 6z m-2303 -12 c-3 -3 -12 -4 -19 -1 -8 3 -5 6 6 6 11 1 17 -2 13 -5z
m1700 -26 c-3 -7 -5 -2 -5 12 0 14 2 19 5 13 2 -7 2 -19 0 -25z m-1322 12 c3
-5 2 -10 -4 -10 -5 0 -13 5 -16 10 -3 6 -2 10 4 10 5 0 13 -4 16 -10z m-1958
-6 c-3 -3 -12 -4 -19 -1 -8 3 -5 6 6 6 11 1 17 -2 13 -5z m2050 -11 c0 -7 -4
-13 -8 -13 -4 0 -9 6 -12 13 -3 8 0 14 7 14 7 0 13 -6 13 -14z m1900 -20 c-3
-10 -5 -4 -5 12 0 17 2 24 5 18 2 -7 2 -21 0 -30z m-1807 7 c0 -5 -2 -10 -4
-10 -3 0 -8 5 -11 10 -3 6 -1 10 4 10 6 0 11 -4 11 -10z m1485 -8 c-3 -3 -11
0 -18 7 -9 10 -8 11 6 5 10 -3 15 -9 12 -12z m245 4 c-7 -7 -13 -7 -20 0 -6 6
-3 10 10 10 13 0 16 -4 10 -10z m-2470 -36 c0 -5 -4 -10 -10 -10 -5 0 -10 5
-10 10 0 6 5 10 10 10 6 0 10 -4 10 -10z m147 -72 c-2 -18 -4 -6 -4 27 0 33 2
48 4 33 2 -15 2 -42 0 -60z m-303 57 c4 -10 -1 -15 -14 -15 -13 0 -18 5 -14
15 4 8 10 15 14 15 4 0 10 -7 14 -15z m431 5 c3 -5 -1 -10 -10 -10 -9 0 -13 5
-10 10 3 6 8 10 10 10 2 0 7 -4 10 -10z m-261 -23 c18 -13 13 -14 -49 -8 -5 1
-3 6 5 11 20 13 23 12 44 -3z m276 -7 c12 -7 10 -9 -8 -7 -12 0 -22 5 -22 9 0
11 12 10 30 -2z m-454 -9 c-6 -9 -56 -22 -56 -14 0 4 40 21 53 22 5 1 6 -3 3
-8z m684 -51 c0 -33 -4 -60 -10 -60 -11 0 -14 103 -3 113 12 12 13 8 13 -53z
m167 38 c-3 -8 -6 -5 -6 6 -1 11 2 17 5 13 3 -3 4 -12 1 -19z m-197 -37 c0
-51 -15 -76 -27 -45 -3 9 -1 25 6 35 8 14 8 19 0 19 -6 0 -9 6 -6 14 3 8 1 17
-6 20 -7 2 -2 5 11 5 20 1 22 -4 22 -48z m-480 24 c0 -8 -4 -15 -9 -15 -13 0
-22 16 -14 24 11 11 23 6 23 -9z m270 -5 c0 -5 -4 -10 -10 -10 -5 0 -10 5 -10
10 0 6 5 10 10 10 6 0 10 -4 10 -10z m1977 -27 c-3 -10 -5 -4 -5 12 0 17 2 24
5 18 2 -7 2 -21 0 -30z m-2403 -5 c12 -30 72 -97 64 -73 -2 6 12 28 30 50 17
22 32 34 32 28 0 -6 -11 -25 -25 -41 -14 -17 -25 -32 -25 -35 0 -3 21 -4 46
-2 35 3 45 1 41 -9 -3 -7 1 -13 8 -13 8 0 11 7 7 15 -4 11 -1 14 11 9 15 -6
16 -4 6 14 -8 16 -14 18 -22 10 -19 -19 -27 -12 -27 23 l0 35 44 -46 c46 -47
67 -89 39 -79 -8 3 -55 6 -104 6 -81 0 -89 2 -89 19 0 11 -11 33 -25 49 -14
17 -25 37 -25 46 0 10 -6 13 -15 10 -8 -4 -15 -1 -15 5 0 24 31 9 44 -21z
m837 -11 c-13 -13 -15 1 -4 30 7 17 8 17 11 -1 2 -10 -1 -23 -7 -29z m-904 1
c-3 -7 -5 -2 -5 12 0 14 2 19 5 13 2 -7 2 -19 0 -25z m940 0 c-3 -7 -5 -2 -5
12 0 14 2 19 5 13 2 -7 2 -19 0 -25z m-437 9 c0 -7 14 -26 31 -43 37 -35 52
-70 40 -91 -6 -11 -10 -12 -15 -4 -4 6 -1 12 6 12 7 1 -22 7 -64 13 -65 9 -76
13 -68 26 9 13 11 13 20 0 9 -13 10 -13 10 0 0 13 2 13 9 1 8 -12 11 -8 16 15
4 16 8 34 10 41 2 7 0 15 -5 18 -13 8 -13 25 0 25 6 0 10 -6 10 -13z m-470 -6
c0 -5 -11 -23 -25 -39 -30 -36 -31 -42 -6 -42 11 0 23 -5 26 -10 4 -6 11 -8
16 -5 5 4 9 1 9 -4 0 -6 -18 -11 -39 -11 -22 0 -46 -3 -55 -6 -30 -12 -16 30
24 71 22 22 40 43 40 48 0 4 2 7 5 7 3 0 5 -4 5 -9z m989 -48 c0 -37 -3 -51
-8 -39 -4 11 -6 29 -5 40 1 12 3 29 3 39 1 9 3 17 6 17 3 0 5 -26 4 -57z
m-369 31 c0 -8 -5 -12 -10 -9 -6 4 -8 11 -5 16 9 14 15 11 15 -7z m738 -9 c-3
-3 -9 2 -12 12 -6 14 -5 15 5 6 7 -7 10 -15 7 -18z m-1012 -28 c8 -4 14 -13
14 -19 0 -6 -9 -3 -20 7 -11 10 -19 28 -19 39 1 20 2 20 6 1 3 -11 11 -24 19
-28z m65 20 c-10 -9 -11 -8 -5 6 3 10 9 15 12 12 3 -3 0 -11 -7 -18z m676 -9
c-3 -7 -5 -2 -5 12 0 14 2 19 5 13 2 -7 2 -19 0 -25z m90 -65 c-2 -21 -4 -6
-4 32 0 39 2 55 4 38 2 -18 2 -50 0 -70z m2371 72 c-3 -3 -9 2 -12 12 -6 14
-5 15 5 6 7 -7 10 -15 7 -18z m-2633 -30 c-2 -46 -15 -58 -15 -13 0 28 6 48
15 48 0 0 0 -16 0 -35z m1680 5 c3 -5 1 -10 -4 -10 -6 0 -11 5 -11 10 0 6 2
10 4 10 3 0 8 -4 11 -10z m-1328 -67 c-2 -16 -4 -5 -4 22 0 28 2 40 4 28 2
-13 2 -35 0 -50z m85 27 c-2 -22 -6 -40 -8 -40 -2 0 -4 18 -4 40 0 22 3 40 8
40 4 0 6 -18 4 -40z m-1007 -22 c3 -32 3 -32 -10 -8 -7 13 -11 30 -8 37 8 20
16 8 18 -29z m325 -16 c0 -18 -4 -31 -9 -27 -5 3 -12 -3 -14 -12 -4 -14 -5
-13 -6 5 0 12 3 22 8 22 4 0 7 17 4 38 -2 27 -1 33 7 22 5 -8 10 -30 10 -48z
m28 9 c1 -22 -3 -43 -8 -46 -7 -4 -10 12 -9 44 2 59 15 60 17 2z m729 -3 c-2
-13 -4 -5 -4 17 -1 22 1 32 4 23 2 -10 2 -28 0 -40z m1993 32 c0 -5 -2 -10 -4
-10 -3 0 -8 5 -11 10 -3 6 -1 10 4 10 6 0 11 -4 11 -10z m-3723 -42 c-3 -7 -5
-2 -5 12 0 14 2 19 5 13 2 -7 2 -19 0 -25z m1177 7 c-4 -8 -8 -15 -10 -15 -2
0 -4 7 -4 15 0 8 4 15 10 15 5 0 7 -7 4 -15z m33 -62 c-2 -16 -4 -3 -4 27 0
30 2 43 4 28 2 -16 2 -40 0 -55z m1710 55 c-3 -8 -6 -5 -6 6 -1 11 2 17 5 13
3 -3 4 -12 1 -19z m-1630 -25 c-3 -10 -5 -4 -5 12 0 17 2 24 5 18 2 -7 2 -21
0 -30z m1543 -28 c0 -35 3 -43 15 -39 10 4 15 0 15 -13 0 -16 -7 -19 -40 -18
-25 0 -40 5 -40 13 0 6 7 12 15 12 11 0 15 12 15 51 0 31 4 48 10 44 6 -3 10
-26 10 -50z m-1023 13 c-3 -7 -5 -2 -5 12 0 14 2 19 5 13 2 -7 2 -19 0 -25z
m-1138 -8 c11 -24 11 -24 -3 -6 -9 11 -16 24 -16 30 0 12 5 7 19 -24z m146 20
c3 -5 2 -10 -4 -10 -5 0 -13 5 -16 10 -3 6 -2 10 4 10 5 0 13 -4 16 -10z
m2898 4 c9 -10 -12 -46 -23 -39 -6 3 -7 -1 -4 -10 5 -12 2 -14 -12 -8 -17 6
-17 5 -5 -10 7 -9 9 -17 4 -17 -5 0 -15 12 -21 26 -9 18 -9 23 -1 18 7 -4 9 0
5 14 -5 15 -2 22 11 25 28 7 39 7 46 1z m-2146 -56 c-2 -13 -4 -5 -4 17 -1 22
1 32 4 23 2 -10 2 -28 0 -40z m-90 0 c-3 -7 -5 -2 -5 12 0 14 2 19 5 13 2 -7
2 -19 0 -25z m1679 9 c17 -19 18 -25 7 -36 -9 -8 -12 -24 -8 -44 4 -18 0 -46
-8 -65 l-14 -33 -16 25 c-20 30 -22 66 -4 67 10 0 10 2 0 6 -7 2 -13 20 -13
39 0 20 5 34 13 35 9 0 9 2 -1 6 -15 6 -6 23 12 23 7 0 21 -10 32 -23z m-2199
-9 c-3 -8 -6 -5 -6 6 -1 11 2 17 5 13 3 -3 4 -12 1 -19z m39 -3 c1 -8 -2 -15
-7 -15 -5 0 -9 10 -9 22 0 23 12 17 16 -7z m291 -7 c-3 -7 -5 -2 -5 12 0 14 2
19 5 13 2 -7 2 -19 0 -25z m440 -20 c-2 -13 -4 -5 -4 17 -1 22 1 32 4 23 2
-10 2 -28 0 -40z m-1037 22 c0 -5 -2 -10 -4 -10 -3 0 -8 5 -11 10 -3 6 -1 10
4 10 6 0 11 -4 11 -10z m3030 -41 c0 -6 -4 -7 -10 -4 -5 3 -10 11 -10 16 0 6
5 7 10 4 6 -3 10 -11 10 -16z m94 -95 c23 -9 20 -23 -4 -17 -11 3 -20 9 -20
14 0 11 3 11 24 3z m-560 -12 c2 -4 -4 -8 -14 -8 -10 0 -16 4 -14 8 3 4 9 8
14 8 5 0 11 -4 14 -8z m526 -2 c0 -5 -9 -10 -20 -10 -11 0 -20 5 -20 10 0 6 9
10 20 10 11 0 20 -4 20 -10z m-648 -50 c-3 -18 0 -30 7 -30 6 0 11 -4 11 -9 0
-5 -8 -7 -18 -4 -14 3 -17 12 -14 39 2 19 7 34 11 34 4 0 6 -13 3 -30z m123
20 c-3 -5 -10 -10 -16 -10 -5 0 -9 5 -9 10 0 6 7 10 16 10 8 0 12 -4 9 -10z
m9 -36 c3 -9 1 -25 -5 -37 -9 -16 -9 -22 0 -25 6 -2 11 -10 11 -18 0 -28 -42
28 -45 60 -2 25 1 32 15 33 10 1 21 -5 24 -13z m-433 -8 c-8 -10 -9 -16 -1
-21 18 -11 11 -23 -11 -18 -13 4 -17 8 -9 13 6 4 11 10 11 14 -3 19 0 26 10
26 8 0 8 -4 0 -14z m-1844 -113 c-2 -21 -4 -4 -4 37 0 41 2 58 4 38 2 -21 2
-55 0 -75z m1913 77 c0 -5 -10 -6 -22 -2 -12 3 -17 7 -10 10 7 2 9 9 5 15 -4
7 1 6 10 -2 9 -7 17 -17 17 -21z m-130 5 c-7 -9 -15 -13 -17 -11 -7 7 7 26 19
26 6 0 6 -6 -2 -15z m550 -27 c0 -48 -15 -84 -24 -58 -8 25 -14 89 -8 94 3 4
11 6 19 6 9 0 13 -14 13 -42z m-2030 -28 c0 -33 -4 -60 -8 -60 -7 0 -8 79 -2
118 0 1 2 2 5 2 3 0 5 -27 5 -60z m97 38 c-3 -8 -6 -5 -6 6 -1 11 2 17 5 13 3
-3 4 -12 1 -19z m94 -41 c-4 -74 -11 -72 -11 3 0 35 3 60 7 56 4 -3 6 -30 4
-59z m86 -9 c-2 -13 -4 -3 -4 22 0 25 2 35 4 23 2 -13 2 -33 0 -45z m2490 56
c-3 -3 -12 -4 -19 -1 -8 3 -5 6 6 6 11 1 17 -2 13 -5z m-4828 -17 c-2 -1 -13
-9 -24 -17 -19 -14 -19 -14 -6 3 7 9 18 17 24 17 6 0 8 -1 6 -3z m2418 -44
c-3 -10 -5 -2 -5 17 0 19 2 27 5 18 2 -10 2 -26 0 -35z m80 -25 c-2 -13 -4 -3
-4 22 0 25 2 35 4 23 2 -13 2 -33 0 -45z m153 46 c0 -8 -5 -12 -10 -9 -6 4 -8
11 -5 16 9 14 15 11 15 -7z m1485 -28 c1 -26 -23 -73 -26 -51 -10 63 -6 89 13
83 6 -2 12 -17 13 -32z m662 2 c-3 -8 -6 -5 -6 6 -1 11 2 17 5 13 3 -3 4 -12
1 -19z m-70 -35 c-3 -10 -5 -2 -5 17 0 19 2 27 5 18 2 -10 2 -26 0 -35z m233
37 c0 -5 -6 -10 -14 -10 -8 0 -18 5 -21 10 -3 6 3 10 14 10 12 0 21 -4 21 -10z
m151 -17 c-11 -5 -11 -7 0 -14 10 -6 10 -9 2 -9 -18 0 -36 37 -20 43 6 2 17 0
22 -5 7 -7 5 -12 -4 -15z m-3536 -3 c-3 -4 1 -10 9 -13 16 -7 29 -60 12 -54
-6 2 -12 13 -14 25 -2 12 -7 22 -12 22 -5 0 -8 9 -7 19 0 11 5 17 9 15 5 -3 6
-9 3 -14z m163 -9 c3 -8 -1 -12 -9 -9 -7 2 -15 10 -17 17 -3 8 1 12 9 9 7 -2
15 -10 17 -17z m2172 -7 c0 -8 -4 -14 -10 -14 -5 0 -10 9 -10 21 0 11 5 17 10
14 6 -3 10 -13 10 -21z m-4030 6 c0 -5 -7 -7 -15 -4 -8 4 -15 8 -15 10 0 2 7
4 15 4 8 0 15 -4 15 -10z m1540 -10 c0 -5 -7 -10 -16 -10 -8 0 -12 5 -9 10 3
6 10 10 16 10 5 0 9 -4 9 -10z m-400 -4 c0 -3 -4 -8 -10 -11 -5 -3 -10 -1 -10
4 0 6 5 11 10 11 6 0 10 -2 10 -4z m3923 -9 c-3 -4 4 -11 16 -14 12 -3 21 -9
21 -14 0 -12 -27 -11 -35 1 -3 5 -16 6 -28 2 -12 -4 -49 -5 -82 -1 l-60 6 58
1 c43 2 57 6 57 17 0 11 9 15 29 13 16 -1 27 -6 24 -11z m-3619 -22 c3 -8 1
-15 -4 -15 -6 0 -10 7 -10 15 0 8 2 15 4 15 2 0 6 -7 10 -15z m94 -3 c6 -18
-15 -14 -22 4 -4 10 -1 14 6 12 6 -2 14 -10 16 -16z m642 -47 c0 -36 -4 -65
-9 -65 -5 0 -9 29 -9 65 0 36 4 65 9 65 5 0 9 -29 9 -65z m96 39 c-4 -9 -9
-15 -11 -12 -3 3 -3 13 1 22 4 9 9 15 11 12 3 -3 3 -13 -1 -22z m91 -21 c-3
-10 -5 -2 -5 17 0 19 2 27 5 18 2 -10 2 -26 0 -35z m90 -35 c-2 -18 -4 -6 -4
27 0 33 2 48 4 33 2 -15 2 -42 0 -60z m2013 72 c0 -5 -4 -10 -10 -10 -5 0 -10
5 -10 10 0 6 5 10 10 10 6 0 10 -4 10 -10z m85 -18 c-2 -9 -4 -23 -4 -30 -1
-10 -4 -10 -15 0 -12 11 -12 15 0 29 8 9 11 19 7 24 -5 4 -3 5 4 2 6 -4 10
-15 8 -25z m712 2 c-9 -9 -28 6 -21 18 4 6 10 6 17 -1 6 -6 8 -13 4 -17z
m-4127 7 c0 -5 -9 -11 -19 -14 -14 -3 -18 -1 -14 9 6 15 33 19 33 5z m706 -17
c-4 -9 -9 -15 -11 -12 -3 3 -3 13 1 22 4 9 9 15 11 12 3 -3 3 -13 -1 -22z
m251 4 c-3 -8 -6 -5 -6 6 -1 11 2 17 5 13 3 -3 4 -12 1 -19z m673 -10 c0 -5
-4 -8 -10 -8 -5 0 -10 10 -10 23 0 18 2 19 10 7 5 -8 10 -18 10 -22z m2347 10
c-3 -8 -6 -5 -6 6 -1 11 2 17 5 13 3 -3 4 -12 1 -19z m-3820 6 c-3 -3 -12 -4
-19 -1 -8 3 -5 6 6 6 11 1 17 -2 13 -5z m1320 -31 c-3 -10 -5 -4 -5 12 0 17 2
24 5 18 2 -7 2 -21 0 -30z m1708 27 c3 -5 -1 -10 -10 -10 -9 0 -13 5 -10 10 3
6 8 10 10 10 2 0 7 -4 10 -10z m915 -4 c-1 -5 4 -13 12 -18 9 -7 8 -8 -7 -6
-11 2 -21 12 -23 22 -2 11 1 17 8 14 6 -2 11 -7 10 -12z m-3363 -93 c-2 -21
-4 -6 -4 32 0 39 2 55 4 38 2 -18 2 -50 0 -70z m1245 72 c-2 -14 -8 -28 -13
-30 -9 -6 -4 28 6 45 10 16 13 11 7 -15z m1356 0 c-3 -3 -9 2 -12 12 -6 14 -5
15 5 6 7 -7 10 -15 7 -18z m-811 9 c-3 -3 -12 -4 -19 -1 -8 3 -5 6 6 6 11 1
17 -2 13 -5z m595 -39 c-6 -30 -6 -30 -12 -5 -8 29 -1 55 11 43 4 -4 5 -21 1
-38z m818 35 c13 -9 13 -10 0 -9 -8 1 -26 5 -40 9 l-25 8 25 1 c14 0 32 -4 40
-9z m250 -6 c0 -2 -7 -4 -15 -4 -8 0 -15 4 -15 10 0 5 7 7 15 4 8 -4 15 -8 15
-10z m-874 -29 c-5 -13 -13 -15 -34 -11 -17 4 -22 3 -14 -2 10 -7 7 -11 -12
-14 -23 -5 -26 -2 -26 23 0 25 4 28 38 31 43 4 57 -4 48 -27z m537 28 c-13 -2
-35 -2 -50 0 -16 2 -5 4 22 4 28 0 40 -2 28 -4z m-1121 -33 c116 0 195 -10
176 -21 -10 -7 -10 -9 0 -9 15 0 16 -26 0 -36 -7 -4 -8 -3 -4 4 5 9 -10 12
-54 12 -43 0 -59 -3 -54 -11 5 -8 -4 -10 -29 -7 -20 2 -33 0 -31 -4 8 -13 -6
-9 -22 6 -8 8 -14 21 -14 29 0 18 -30 31 -42 19 -5 -5 -3 -14 6 -21 13 -11 13
-15 -2 -32 -9 -10 -26 -19 -39 -19 -30 0 -316 -57 -377 -75 -59 -18 -66 -18
-66 -5 0 6 8 10 18 10 10 0 45 7 77 16 33 9 98 25 145 35 67 14 74 17 30 12
-127 -12 -498 -107 -1065 -269 -334 -96 -352 -102 -352 -117 0 -6 -4 -21 -8
-32 -8 -19 -7 -19 11 1 18 20 67 39 90 36 6 -1 24 5 40 13 34 17 54 19 54 5 0
-5 4 -10 10 -10 5 0 7 6 4 14 -3 8 3 16 15 19 12 3 21 1 21 -5 0 -5 6 -8 13
-5 6 2 11 9 10 15 -1 5 9 12 22 15 14 2 25 0 25 -4 0 -5 4 -9 10 -9 5 0 7 6 4
13 -5 15 0 17 66 22 25 1 44 7 43 12 -1 5 5 10 13 10 29 0 5 -26 -31 -33 -55
-9 -78 -20 -85 -38 -5 -12 -9 -16 -9 -11 -1 16 -41 16 -47 1 -3 -8 -15 -11
-29 -8 -19 3 -27 -1 -34 -19 -5 -13 -10 -18 -10 -11 -1 22 -21 13 -22 -10 -1
-22 -1 -22 -7 -3 -8 23 -54 27 -74 7 -15 -15 -31 -16 -22 0 4 6 3 8 -4 5 -5
-4 -8 -17 -5 -30 4 -17 3 -19 -6 -7 -8 12 -12 10 -20 -10 -7 -18 -10 -20 -10
-7 -1 23 -22 22 -28 -3 -9 -34 -23 -22 -23 20 0 22 -2 40 -3 40 -8 0 -273 -79
-299 -89 -34 -13 -37 -31 -5 -32 l22 0 -22 -9 c-17 -7 -23 -18 -23 -40 0 -20
-5 -30 -15 -30 -13 0 -15 21 -14 131 1 139 -3 152 -46 146 -14 -1 -20 3 -19
16 2 22 -4 21 -41 -3 -36 -24 -45 -25 -45 -4 0 8 -4 13 -9 9 -5 -3 -12 4 -16
14 -3 11 -15 23 -26 26 -14 5 -18 12 -14 23 5 14 4 15 -6 4 -15 -14 -53 -17
-44 -3 3 5 1 12 -5 16 -14 9 -2 25 18 25 15 0 15 -2 2 -10 -9 -6 -10 -10 -3
-10 6 0 15 5 18 11 4 6 30 10 59 9 95 -3 127 0 121 10 -3 6 0 10 7 11 10 0 10
2 1 6 -7 2 -13 9 -13 13 0 5 13 1 30 -8 26 -15 32 -15 52 -3 16 10 23 10 26 2
2 -6 10 -11 18 -11 14 0 15 5 17 77 2 61 19 36 19 -26 l-1 -51 82 1 c76 1 83
-1 102 -24 11 -14 31 -28 45 -32 15 -3 93 9 185 30 413 93 565 127 750 164
301 61 413 81 485 87 36 3 67 8 70 11 20 20 -312 -27 -684 -96 -61 -12 -114
-21 -119 -21 -4 0 -5 -5 -2 -10 4 -7 -2 -9 -17 -5 -30 7 -351 -58 -341 -70 4
-4 2 -5 -4 -1 -19 11 -88 -4 -71 -16 8 -5 -2 -6 -27 -3 -31 5 -37 4 -25 -5 12
-9 11 -10 -8 -5 -12 4 -66 -3 -118 -15 l-96 -22 -14 21 c-9 12 -26 21 -42 21
-21 0 -24 2 -12 10 8 5 27 10 42 10 14 0 82 11 150 24 68 13 169 31 226 41 90
16 102 21 104 39 2 41 3 45 11 52 4 4 7 -9 7 -29 l0 -37 43 6 c23 4 128 22
232 40 105 19 202 34 217 34 32 0 75 39 56 51 -8 5 -5 8 9 6 15 -1 19 -5 12
-13 -9 -11 12 -40 22 -30 2 2 27 7 54 10 28 3 129 15 225 26 96 11 208 20 249
20 65 0 72 2 67 18 -6 16 -5 16 8 0 11 -15 30 -18 108 -18z m-3125 -2 c-3 -8
-6 -5 -6 6 -1 11 2 17 5 13 3 -3 4 -12 1 -19z m1620 -15 c-3 -10 -5 -4 -5 12
0 17 2 24 5 18 2 -7 2 -21 0 -30z m2703 -4 l0 -29 -80 0 c-78 0 -80 1 -80 24
0 27 10 30 113 32 45 1 47 0 47 -27z m-520 11 c0 -5 -2 -10 -4 -10 -2 0 -12
-3 -22 -7 -16 -6 -17 -5 -4 10 17 19 30 22 30 7z m-3744 -26 c-5 -14 -9 -15
-19 -5 -9 9 -9 14 3 21 18 11 24 6 16 -16z m3643 2 c10 -12 8 -13 -8 -9 -12 3
-21 9 -21 14 0 14 16 11 29 -5z m806 4 c3 -5 1 -10 -4 -10 -6 0 -11 5 -11 10
0 6 2 10 4 10 3 0 8 -4 11 -10z m-650 -10 c3 -5 1 -10 -4 -10 -6 0 -11 5 -11
10 0 6 2 10 4 10 3 0 8 -4 11 -10z m218 -28 c-3 -12 -10 -22 -15 -22 -5 0 -7
3 -5 8 2 4 7 16 11 26 9 25 17 16 9 -12z m-3097 -9 c-7 -7 -26 7 -26 19 0 6 6
6 15 -2 9 -7 13 -15 11 -17z m3024 -20 c0 -9 -6 -10 -25 -3 -17 6 -25 6 -25
-1 0 -6 -5 -7 -12 -3 -8 5 -6 11 7 20 10 7 23 11 28 7 7 -4 8 1 4 13 -7 18 -7
18 8 0 8 -11 15 -26 15 -33z m-530 26 c0 -5 5 -7 11 -4 6 4 5 -2 -2 -14 -10
-14 -15 -17 -21 -8 -11 17 -10 37 2 37 6 0 10 -5 10 -11z m207 -11 c-3 -8 -6
-5 -6 6 -1 11 2 17 5 13 3 -3 4 -12 1 -19z m-3297 2 c0 -5 -5 -10 -11 -10 -5
0 -7 5 -4 10 3 6 8 10 11 10 2 0 4 -4 4 -10z m3878 -7 c-10 -2 -26 -2 -35 0
-10 3 -2 5 17 5 19 0 27 -2 18 -5z m-3268 -41 c-7 -3 -16 2 -21 9 -16 25 -9
32 12 13 13 -12 16 -20 9 -22z m-595 18 c-4 -6 -11 -7 -17 -4 -7 4 -8 2 -4 -4
5 -9 13 -9 26 -2 16 8 18 8 14 -5 -4 -10 -19 -15 -48 -15 l-41 1 24 19 c24 21
57 28 46 10z m3562 -16 c-3 -3 -12 -4 -19 -1 -8 3 -5 6 6 6 11 1 17 -2 13 -5z
m-2962 -24 c3 -5 -1 -10 -9 -10 -9 0 -16 5 -16 10 0 6 4 10 9 10 6 0 13 -4 16
-10z m445 -27 c0 -43 -5 -41 -13 5 -4 18 -2 32 3 32 6 0 10 -16 10 -37z m-453
-15 c-3 -8 -6 -5 -6 6 -1 11 2 17 5 13 3 -3 4 -12 1 -19z m1573 12 c0 -5 -8
-10 -17 -10 -15 0 -16 2 -3 10 19 12 20 12 20 0z m-1300 -14 c0 -3 -4 -8 -10
-11 -5 -3 -10 -1 -10 4 0 6 5 11 10 11 6 0 10 -2 10 -4z m1210 -16 c-8 -5 -18
-6 -24 -3 -5 4 -1 10 10 13 24 9 34 2 14 -10z m47 14 c-3 -3 -12 -4 -19 -1 -8
3 -5 6 6 6 11 1 17 -2 13 -5z m-2127 -38 c0 -8 -4 -17 -9 -20 -10 -7 -23 19
-14 28 11 11 23 6 23 -8z m1990 2 c0 -4 -9 -8 -20 -8 -11 0 -20 4 -20 8 0 4 9
8 20 8 11 0 20 -4 20 -8z m-2253 -35 c-3 -10 -5 -4 -5 12 0 17 2 24 5 18 2 -7
2 -21 0 -30z m2203 22 c0 -6 -103 -36 -108 -31 -2 2 18 11 45 19 56 17 63 19
63 12z m-205 -55 c3 -5 1 -10 -4 -10 -6 0 -11 5 -11 10 0 6 2 10 4 10 3 0 8
-4 11 -10z m55 6 c0 -2 -9 -6 -20 -9 -11 -3 -20 -1 -20 4 0 5 9 9 20 9 11 0
20 -2 20 -4z m-1455 -26 c-22 -25 -37 -26 -28 -2 6 14 4 15 -9 4 -8 -7 -22
-10 -30 -7 -12 5 -25 -2 -75 -45 -24 -20 -56 -9 -46 16 3 9 10 11 22 5 19 -11
50 3 37 16 -5 4 -11 3 -13 -4 -6 -17 -33 -4 -33 16 -1 14 -3 13 -15 -3 -8 -11
-15 -14 -15 -8 0 7 -7 12 -15 12 -8 0 -15 -5 -15 -11 0 -5 -4 -7 -10 -4 -21
13 -9 27 20 23 17 -3 33 -1 35 3 3 4 51 7 107 8 102 2 102 2 83 -19z m-466 6
c-2 -2 -26 -6 -54 -9 -34 -4 -42 -3 -25 3 25 8 87 13 79 6z m31 -7 c0 -6 7 -8
18 -4 14 5 15 4 4 -6 -10 -11 -15 -10 -29 4 -11 11 -13 17 -5 17 7 0 12 -5 12
-11z m1765 2 c3 -5 1 -12 -5 -16 -5 -3 -10 1 -10 9 0 18 6 21 15 7z m-44 -21
c-13 -11 -32 -20 -42 -20 -10 0 -19 -6 -19 -12 0 -9 -4 -8 -10 2 -5 8 -10 10
-10 4 0 -7 -8 -14 -18 -16 -11 -3 -19 0 -19 8 0 7 4 11 8 8 4 -2 9 0 11 6 2 6
19 11 38 13 19 1 41 8 48 15 7 6 19 12 25 12 7 -1 1 -10 -12 -20z m336 -2 c-3
-8 -6 -5 -6 6 -1 11 2 17 5 13 3 -3 4 -12 1 -19z m-2235 -7 c-23 -9 -39 -20
-35 -24 4 -5 -1 -5 -10 -1 -22 8 -16 15 26 30 51 18 67 15 19 -5z m2468 -1 c0
-5 -8 -10 -17 -10 -15 0 -16 2 -3 10 19 12 20 12 20 0z m-2445 -10 c-3 -5 -12
-10 -18 -10 -7 0 -6 4 3 10 19 12 23 12 15 0z m-95 -4 c0 -3 -4 -8 -10 -11 -5
-3 -10 -1 -10 4 0 6 5 11 10 11 6 0 10 -2 10 -4z m400 -10 c-7 -7 -13 -7 -20
0 -6 6 -3 10 10 10 13 0 16 -4 10 -10z m-435 -6 c-3 -5 -15 -10 -25 -10 -10 0
-21 -4 -25 -10 -3 -5 -12 -7 -20 -3 -11 4 -15 -2 -15 -23 0 -22 -3 -25 -9 -14
-6 8 -7 18 -4 24 4 5 -3 6 -18 2 -33 -10 -83 -16 -77 -11 4 5 57 20 153 45 43
11 47 11 40 0z m520 0 c3 -5 -1 -10 -9 -10 -9 0 -16 5 -16 10 0 6 4 10 9 10 6
0 13 -4 16 -10z m-485 -20 c0 -5 -2 -10 -4 -10 -3 0 -8 5 -11 10 -3 6 -1 10 4
10 6 0 11 -4 11 -10z m367 4 c-3 -3 -12 -4 -19 -1 -8 3 -5 6 6 6 11 1 17 -2
13 -5z m-392 -14 c4 -6 -1 -7 -10 -3 -10 3 -21 0 -25 -8 -5 -7 -12 -10 -17 -6
-8 9 15 27 34 27 6 0 15 -4 18 -10z m260 0 c3 -5 1 -10 -4 -10 -6 0 -11 5 -11
10 0 6 2 10 4 10 3 0 8 -4 11 -10z m-485 -28 c0 -5 -7 -9 -15 -9 -8 0 -12 4
-9 9 3 4 9 8 15 8 5 0 9 -4 9 -8z m1987 -14 c-3 -8 -6 -5 -6 6 -1 11 2 17 5
13 3 -3 4 -12 1 -19z m270 -10 c-3 -7 -5 -2 -5 12 0 14 2 19 5 13 2 -7 2 -19
0 -25z m-2577 7 c10 -13 9 -15 -8 -15 -15 0 -20 5 -16 15 4 8 7 15 9 15 1 0 8
-7 15 -15z m435 -5 c3 -6 -1 -7 -9 -4 -18 7 -21 14 -7 14 6 0 13 -4 16 -10z
m2102 -12 c-3 -8 -6 -5 -6 6 -1 11 2 17 5 13 3 -3 4 -12 1 -19z m303 2 c0 -5
-5 -10 -11 -10 -5 0 -7 5 -4 10 3 6 8 10 11 10 2 0 4 -4 4 -10z m-1441 -14
c11 -14 6 -15 -27 -7 -4 1 8 21 12 21 2 0 9 -6 15 -14z m-1389 -4 c0 -4 -10
-13 -22 -21 -23 -14 -23 -14 -4 8 20 22 26 25 26 13z m2080 -10 c0 -4 -10 -9
-22 -9 -18 -2 -20 0 -8 7 18 12 30 13 30 2z m357 -24 c-3 -7 -5 -2 -5 12 0 14
2 19 5 13 2 -7 2 -19 0 -25z m325 10 c-7 -7 -12 -8 -12 -2 0 14 12 26 19 19 2
-3 -1 -11 -7 -17z m-1292 -80 c0 -12 -28 -9 -36 4 -4 7 -3 8 4 4 19 -11 14 3
-14 42 l-27 37 36 -40 c20 -22 36 -43 37 -47z m1270 78 c0 -3 -4 -8 -10 -11
-5 -3 -10 -1 -10 4 0 6 5 11 10 11 6 0 10 -2 10 -4z m-353 -28 c-3 -8 -6 -5
-6 6 -1 11 2 17 5 13 3 -3 4 -12 1 -19z m-50 -30 c-3 -7 -5 -2 -5 12 0 14 2
19 5 13 2 -7 2 -19 0 -25z m334 -15 c-6 -10 -11 -13 -11 -6 0 7 -7 10 -15 7
-8 -4 -13 -9 -11 -13 2 -3 -8 -7 -22 -8 -25 -1 -25 0 8 17 19 10 38 16 42 13
5 -2 8 1 8 6 0 6 -5 11 -11 11 -5 0 -7 5 -3 11 12 20 26 -18 15 -38z m54 37
c-3 -5 -12 -10 -18 -10 -7 0 -6 4 3 10 19 12 23 12 15 0z m-497 -51 c-3 -20
-5 -19 -9 9 -3 20 -2 29 4 23 5 -5 7 -19 5 -32z m362 21 c0 -5 -5 -10 -11 -10
-5 0 -7 5 -4 10 3 6 8 10 11 10 2 0 4 -4 4 -10z m-905 -20 c-11 -5 -27 -9 -35
-9 -9 0 -8 4 5 9 11 5 27 9 35 9 9 0 8 -4 -5 -9z m414 -6 c1 11 3 17 5 15 2
-2 0 -35 -4 -74 -7 -65 -7 -66 -9 -20 -1 28 -4 61 -6 75 -5 22 -4 22 4 5 9
-19 10 -19 10 -1z m444 1 c-3 -9 -8 -14 -10 -11 -3 3 -2 9 2 15 9 16 15 13 8
-4z m-699 -10 c-4 -8 -8 -15 -10 -15 -2 0 -4 7 -4 15 0 8 4 15 10 15 5 0 7 -7
4 -15z m324 -10 c-3 -3 -9 2 -12 12 -6 14 -5 15 5 6 7 -7 10 -15 7 -18z m-368
-10 c-1 -18 -1 -19 -11 -2 -5 9 -14 17 -19 17 -5 0 -7 -8 -4 -17 5 -15 4 -15
-4 -3 -14 18 -7 29 18 27 13 -1 20 -8 20 -22z m710 16 c0 -6 -4 -13 -10 -16
-5 -3 -10 1 -10 9 0 9 5 16 10 16 6 0 10 -4 10 -9z m-782 -57 c-19 -32 -14
-46 8 -24 6 6 10 3 11 -10 1 -15 -4 -20 -23 -20 -19 0 -24 5 -24 25 0 14 9 34
20 45 11 11 15 20 9 20 -5 0 -7 5 -3 11 5 8 9 8 14 -1 4 -7 -1 -27 -12 -46z
m303 0 c-7 -31 -9 -34 -10 -12 -1 14 -4 35 -7 45 -5 15 -4 15 5 3 9 -13 11
-12 12 5 0 11 3 15 5 9 2 -6 0 -28 -5 -50z m546 50 c-3 -3 -12 -4 -19 -1 -8 3
-5 6 6 6 11 1 17 -2 13 -5z m-610 -36 c-3 -7 -5 -2 -5 12 0 14 2 19 5 13 2 -7
2 -19 0 -25z m564 19 c-6 -8 -7 -18 -3 -22 4 -5 -1 -5 -12 -1 -10 3 -25 1 -32
-5 -8 -6 -14 -7 -14 -2 0 5 15 17 33 26 40 20 42 20 28 4z m-194 -19 c-3 -8
-6 -5 -6 6 -1 11 2 17 5 13 3 -3 4 -12 1 -19z m-681 -17 c-1 -16 -4 -33 -8
-37 -4 -4 0 -13 10 -21 9 -8 12 -12 6 -9 -18 9 -25 -21 -8 -35 8 -7 13 -18 10
-26 -3 -7 -1 -13 3 -13 5 0 11 6 14 13 3 6 4 2 4 -11 -1 -12 -6 -20 -12 -17
-5 3 -18 8 -27 11 -14 5 -18 18 -18 60 0 36 4 54 13 54 9 0 8 3 -2 9 -8 5 -11
16 -6 30 9 30 21 26 21 -8z m42 17 c-2 -6 -10 -13 -16 -14 -7 -1 -8 0 -2 3 5
2 8 9 4 14 -3 5 0 9 6 9 7 0 10 -5 8 -12z m80 -10 c0 -7 4 -28 7 -47 5 -27 4
-31 -7 -21 -13 13 -21 80 -8 80 4 0 7 -6 8 -12z m449 -20 c-3 -7 -5 -2 -5 12
0 14 2 19 5 13 2 -7 2 -19 0 -25z m187 25 c-5 -5 -12 -12 -16 -18 -4 -6 -8 -2
-8 8 0 9 7 17 17 17 9 0 12 -3 7 -7z m-572 -72 c2 -17 1 -28 -4 -25 -8 5 -12
54 -4 54 2 0 6 -13 8 -29z m-495 -17 c2 -13 1 -15 -4 -4 -3 8 -11 19 -17 23
-7 6 -6 7 4 4 8 -2 16 -12 17 -23z m750 -21 c-3 -10 -5 -4 -5 12 0 17 2 24 5
18 2 -7 2 -21 0 -30z m-70 -20 c-3 -10 -5 -4 -5 12 0 17 2 24 5 18 2 -7 2 -21
0 -30z m121 5 c-4 -12 -38 -21 -38 -9 0 12 12 21 28 21 7 0 12 -5 10 -12z
m-791 -30 c-3 -7 -5 -2 -5 12 0 14 2 19 5 13 2 -7 2 -19 0 -25z m703 -8 c0 -5
-8 -10 -17 -10 -15 0 -16 2 -3 10 19 12 20 12 20 0z m-45 -22 c-6 -15 -35 -21
-35 -6 0 4 7 8 15 8 8 0 15 5 15 12 0 6 2 9 5 6 3 -3 3 -12 0 -20z m92 -34
c-3 -3 -12 -4 -19 -1 -8 3 -5 6 6 6 11 1 17 -2 13 -5z"/>
<path d="M3894 3815 c25 -19 31 -19 46 0 11 13 7 15 -26 15 -36 -1 -38 -2 -20
-15z"/>
<path d="M3736 3725 c4 -8 11 -15 16 -15 6 0 5 6 -2 15 -7 8 -14 15 -16 15 -2
0 -1 -7 2 -15z"/>
<path d="M3904 3694 c-18 -14 -18 -15 4 -4 12 6 22 13 22 15 0 8 -5 6 -26 -11z"/>
<path d="M3705 3680 c3 -5 8 -10 11 -10 2 0 4 5 4 10 0 6 -5 10 -11 10 -5 0
-7 -4 -4 -10z"/>
<path d="M3885 3659 c-49 -15 -120 -19 -154 -9 -28 8 -31 7 -21 -5 7 -8 21
-15 31 -15 11 0 19 -4 19 -8 0 -11 72 -5 79 7 4 5 31 16 61 24 30 8 46 15 35
15 -11 0 -33 -4 -50 -9z"/>
<path d="M3981 3634 c0 -11 3 -14 6 -6 3 7 2 16 -1 19 -3 4 -6 -2 -5 -13z"/>
<path d="M3913 3633 c9 -2 25 -2 35 0 9 3 1 5 -18 5 -19 0 -27 -2 -17 -5z"/>
<path d="M3895 3570 c3 -5 8 -10 11 -10 2 0 4 5 4 10 0 6 -5 10 -11 10 -5 0
-7 -4 -4 -10z"/>
<path d="M3896 3531 c-3 -5 1 -14 9 -21 8 -7 12 -16 9 -21 -10 -17 -24 -9 -35
17 -5 15 -12 24 -15 21 -3 -3 0 -16 7 -29 7 -12 12 -27 11 -31 -4 -14 33 11
58 40 18 20 19 23 4 10 -18 -15 -23 -15 -32 -4 -7 8 -9 17 -5 20 3 4 4 7 0 7
-3 0 -8 -4 -11 -9z"/>
<path d="M3790 3496 c0 -9 5 -16 10 -16 6 0 10 4 10 9 0 6 -4 13 -10 16 -5 3
-10 -1 -10 -9z"/>
<path d="M1882 3425 c0 -16 2 -22 5 -12 2 9 2 23 0 30 -3 6 -5 -1 -5 -18z"/>
<path d="M1617 3323 c-4 -3 -7 -11 -7 -17 0 -6 5 -5 12 2 6 6 9 14 7 17 -3 3
-9 2 -12 -2z"/>
<path d="M1630 2930 c-9 -16 -8 -20 5 -20 8 0 15 9 15 20 0 11 -2 20 -5 20 -2
0 -9 -9 -15 -20z"/>
<path d="M1651 2539 c11 -22 29 -25 29 -5 0 7 -9 16 -20 19 -17 4 -18 2 -9
-14z"/>
<path d="M1610 2535 c0 -9 5 -15 11 -13 6 2 11 8 11 13 0 5 -5 11 -11 13 -6 2
-11 -4 -11 -13z"/>
<path d="M1700 2543 c5 -2 8 -9 4 -14 -3 -5 0 -9 6 -9 15 0 7 23 -8 26 -7 1
-8 0 -2 -3z"/>
<path d="M1745 2539 c-10 -15 3 -25 16 -12 7 7 7 13 1 17 -6 3 -14 1 -17 -5z"/>
<path d="M1531 2524 c0 -11 3 -14 6 -6 3 7 2 16 -1 19 -3 4 -6 -2 -5 -13z"/>
<path d="M1550 2531 c0 -6 5 -13 10 -16 6 -3 10 1 10 9 0 9 -4 16 -10 16 -5 0
-10 -4 -10 -9z"/>
<path d="M1780 2531 c0 -17 18 -21 24 -6 3 9 0 15 -9 15 -8 0 -15 -4 -15 -9z"/>
<path d="M1820 2524 c0 -8 5 -12 10 -9 6 3 10 10 10 16 0 5 -4 9 -10 9 -5 0
-10 -7 -10 -16z"/>
<path d="M1813 2473 c9 -2 23 -2 30 0 6 3 -1 5 -18 5 -16 0 -22 -2 -12 -5z"/>
<path d="M3776 2435 c-9 -26 -7 -32 5 -12 6 10 9 21 6 23 -2 3 -7 -2 -11 -11z"/>
<path d="M3895 2470 c-3 -5 -1 -10 4 -10 6 0 11 5 11 10 0 6 -2 10 -4 10 -3 0
-8 -4 -11 -10z"/>
<path d="M3890 2423 c0 -5 5 -15 10 -23 8 -12 10 -11 10 8 0 12 -4 22 -10 22
-5 0 -10 -3 -10 -7z"/>
<path d="M4017 1659 c7 -7 15 -10 18 -7 3 3 -2 9 -12 12 -14 6 -15 5 -6 -5z"/>
<path d="M4163 883 c15 -2 39 -2 55 0 15 2 2 4 -28 4 -30 0 -43 -2 -27 -4z"/>
<path d="M3943 873 c20 -2 54 -2 75 0 20 2 3 4 -38 4 -41 0 -58 -2 -37 -4z"/>
<path d="M3990 822 c0 -4 16 -6 35 -4 19 2 35 6 35 8 0 2 -16 4 -35 4 -19 0
-35 -4 -35 -8z"/>
<path d="M3943 813 c9 -2 23 -2 30 0 6 3 -1 5 -18 5 -16 0 -22 -2 -12 -5z"/>
<path d="M2040 619 c0 -5 11 -9 25 -9 14 0 25 2 25 4 0 2 -11 6 -25 8 -14 3
-25 1 -25 -3z"/>
<path d="M1913 573 c15 -2 39 -2 55 0 15 2 2 4 -28 4 -30 0 -43 -2 -27 -4z"/>
<path d="M2000 552 c0 -4 10 -13 23 -21 22 -14 22 -14 3 8 -20 22 -26 25 -26
13z"/>
<path d="M2368 547 c-28 -8 -38 -16 -39 -31 -1 -18 -2 -19 -6 -3 -4 16 -11 17
-45 12 -49 -9 -175 -47 -133 -41 17 3 37 7 45 10 9 4 20 -2 28 -14 10 -17 10
-20 -3 -20 -8 0 -15 -5 -15 -11 0 -5 -4 -8 -10 -4 -5 3 -7 12 -3 20 3 8 0 15
-5 15 -6 0 -9 -9 -7 -21 2 -11 5 -40 6 -64 2 -24 6 -42 10 -39 5 2 6 11 3 19
-3 8 -3 19 0 24 9 14 36 2 36 -15 0 -20 10 -17 36 11 13 14 19 25 14 25 -5 0
-12 -4 -15 -10 -3 -5 -11 -10 -16 -10 -11 0 0 53 13 58 4 2 6 8 2 13 -3 5 5 9
16 9 15 0 20 5 17 14 -9 23 3 26 24 5 28 -28 46 -24 87 18 20 21 33 31 30 23
-3 -8 -2 -35 2 -60 7 -45 8 -45 9 18 1 64 -9 77 -38 50 -11 -10 -13 -10 -7 0
4 6 6 11 4 11 -2 -1 -20 -6 -40 -12z"/>
<path d="M2088 473 c7 -3 16 -2 19 1 4 3 -2 6 -13 5 -11 0 -14 -3 -6 -6z"/>
<path d="M2341 443 c11 -13 11 -17 1 -20 -13 -5 -7 -23 9 -23 5 0 9 14 9 30 0
21 -5 30 -16 30 -14 0 -15 -2 -3 -17z"/>
<path d="M2285 390 c-3 -5 -1 -10 4 -10 6 0 11 5 11 10 0 6 -2 10 -4 10 -3 0
-8 -4 -11 -10z"/>
<path d="M2155 100 c-3 -5 -1 -10 4 -10 6 0 11 5 11 10 0 6 -2 10 -4 10 -3 0
-8 -4 -11 -10z"/>
<path d="M1680 4745 c-7 -8 -10 -21 -7 -29 3 -8 1 -17 -6 -20 -9 -3 -8 -5 1
-5 7 -1 15 6 19 15 5 13 7 13 14 2 7 -10 9 -9 9 5 0 9 -4 17 -10 17 -5 0 -7 7
-4 15 8 19 0 19 -16 0z"/>
<path d="M1660 4680 c-14 -4 -19 -8 -12 -9 7 -1 11 -5 8 -10 -3 -5 1 -11 9
-15 8 -3 15 -1 15 5 0 6 6 6 18 0 17 -9 34 2 40 27 2 14 -39 15 -78 2z"/>
<path d="M3977 4663 c-10 -9 -9 -23 1 -23 5 0 9 7 9 15 0 17 -1 18 -10 8z"/>
<path d="M3656 4528 c3 -5 10 -6 15 -3 13 9 11 12 -6 12 -8 0 -12 -4 -9 -9z"/>
<path d="M4110 4194 c0 -12 7 -27 15 -34 10 -9 15 -9 15 -1 0 6 -5 11 -11 11
-5 0 -8 4 -5 8 2 4 1 14 -5 22 -7 12 -9 11 -9 -6z"/>
<path d="M4165 4190 c-3 -6 1 -7 9 -4 18 7 21 14 7 14 -6 0 -13 -4 -16 -10z"/>
<path d="M1502 4128 c-14 -14 -17 -72 -3 -64 5 3 7 15 4 26 -3 11 0 27 7 35
15 18 9 20 -8 3z"/>
<path d="M1892 4020 c0 -19 2 -27 5 -17 2 9 2 25 0 35 -3 9 -5 1 -5 -18z"/>
<path d="M4213 3915 c2 -40 6 -51 21 -53 11 -3 16 0 11 7 -3 6 -11 8 -17 5 -7
-5 -9 -2 -6 8 4 8 2 30 -2 49 -8 31 -8 30 -7 -16z"/>
<path d="M4230 3835 c0 -8 2 -15 4 -15 2 0 6 7 10 15 3 8 1 15 -4 15 -6 0 -10
-7 -10 -15z"/>
<path d="M4204 3700 c3 -30 6 -72 6 -92 0 -51 17 -49 22 2 2 22 0 40 -4 40 -5
0 -8 17 -8 38 0 20 -5 44 -11 52 -8 11 -9 0 -5 -40z"/>
<path d="M1342 3700 c0 -19 2 -27 5 -17 2 9 2 25 0 35 -3 9 -5 1 -5 -18z"/>
<path d="M4230 3695 c0 -19 4 -35 9 -35 4 0 6 12 3 26 -3 16 1 30 9 35 11 7
10 9 -3 9 -14 0 -18 -8 -18 -35z"/>
<path d="M4195 3560 c-4 -6 -1 -10 5 -10 7 0 11 -14 10 -32 -1 -18 -1 -58 0
-88 2 -47 3 -51 10 -25 14 56 11 152 -5 158 -8 4 -17 2 -20 -3z"/>
<path d="M4241 3514 c0 -11 3 -14 6 -6 3 7 2 16 -1 19 -3 4 -6 -2 -5 -13z"/>
<path d="M4231 3368 c0 -31 2 -59 7 -61 4 -3 6 16 4 41 -5 73 -10 82 -11 20z"/>
<path d="M2032 3390 c0 -14 2 -19 5 -12 2 6 2 18 0 25 -3 6 -5 1 -5 -13z"/>
<path d="M2022 3300 c0 -19 2 -27 5 -17 2 9 2 25 0 35 -3 9 -5 1 -5 -18z"/>
<path d="M1717 3248 c-8 -27 -8 -69 0 -50 2 6 9 10 14 6 11 -7 12 36 0 54 -6
10 -10 8 -14 -10z"/>
<path d="M1740 3090 c0 -32 4 -49 10 -45 6 3 10 24 10 45 0 21 -4 42 -10 45
-6 4 -10 -13 -10 -45z"/>
<path d="M1893 3088 c-15 -24 -31 -45 -35 -48 -11 -8 21 -50 37 -50 11 0 13 8
9 29 -3 16 0 39 7 52 7 13 13 28 14 32 0 4 7 12 15 17 13 8 12 10 -2 10 -10 0
-30 -19 -45 -42z m1 -74 c3 -8 2 -12 -4 -9 -6 3 -10 10 -10 16 0 14 7 11 14
-7z"/>
<path d="M222 2891 c7 -11 16 -17 20 -15 5 3 2 12 -6 20 -21 20 -28 17 -14 -5z"/>
<path d="M5788 2093 c-29 -35 -30 -43 -5 -43 19 0 23 5 23 30 0 35 1 35 -18
13z m4 -25 c-7 -7 -12 -8 -12 -2 0 14 12 26 19 19 2 -3 -1 -11 -7 -17z"/>
<path d="M5757 2022 c-20 -22 -22 -37 -5 -25 7 4 22 7 33 8 23 0 27 28 4 33
-8 1 -23 -6 -32 -16z"/>
<path d="M5756 1982 c-3 -6 -1 -14 5 -17 15 -10 25 3 12 16 -7 7 -13 7 -17 1z"/>
<path d="M5727 1973 c-11 -10 -8 -25 3 -18 6 3 7 -1 4 -9 -6 -16 11 -23 20 -8
6 10 -19 43 -27 35z"/>
<path d="M5701 1901 c-9 -16 -8 -18 10 -14 14 4 17 8 8 13 -8 6 -6 9 7 13 16
4 16 5 2 6 -10 0 -22 -8 -27 -18z"/>
<path d="M5762 1855 c0 -16 2 -22 5 -12 2 9 2 23 0 30 -3 6 -5 -1 -5 -18z"/>
<path d="M5798 1855 c-3 -14 -1 -25 3 -25 5 0 9 11 9 25 0 14 -2 25 -4 25 -2
0 -6 -11 -8 -25z"/>
<path d="M5714 1849 c0 -12 7 -19 18 -19 10 0 18 3 18 8 0 4 -8 12 -18 18 -15
10 -18 8 -18 -7z"/>
<path d="M5740 1784 c5 -21 8 -40 8 -43 -2 -27 4 -51 12 -46 6 3 10 -1 10 -9
0 -18 2 -19 24 -10 12 5 16 21 16 70 0 61 -1 64 -24 64 -13 0 -31 3 -39 6 -13
5 -14 -1 -7 -32z"/>
<path d="M5786 1652 c-3 -5 1 -9 9 -9 8 0 15 4 15 9 0 4 -4 8 -9 8 -6 0 -12
-4 -15 -8z"/>
<path d="M4285 1510 c-3 -5 -1 -10 4 -10 6 0 11 5 11 10 0 6 -2 10 -4 10 -3 0
-8 -4 -11 -10z"/>
<path d="M4250 700 c-8 -5 -10 -10 -5 -10 6 0 17 5 25 10 8 5 11 10 5 10 -5 0
-17 -5 -25 -10z"/>
<path d="M5672 691 c-11 -7 -10 -10 3 -14 11 -5 14 -3 9 5 -5 7 -2 9 9 5 8 -3
33 -8 54 -11 28 -4 31 -4 13 2 -51 18 -76 21 -88 13z"/>
<path d="M4133 663 c-3 -7 -12 -13 -20 -13 -8 0 -12 -4 -9 -9 5 -7 83 13 94
24 2 1 -11 5 -28 7 -21 3 -34 0 -37 -9z"/>
<path d="M5147 659 c7 -7 15 -10 18 -7 3 3 -2 9 -12 12 -14 6 -15 5 -6 -5z"/>
<path d="M5628 663 c7 -3 16 -2 19 1 4 3 -2 6 -13 5 -11 0 -14 -3 -6 -6z"/>
<path d="M5500 640 c-8 -5 -26 -7 -40 -4 -23 5 -23 5 4 -10 16 -9 37 -14 48
-11 10 4 18 3 18 -2 0 -15 -59 -14 -90 2 -23 12 -30 13 -30 3 -1 -8 -5 -7 -14
5 -7 9 -22 17 -32 16 -16 0 -15 -2 4 -10 22 -8 22 -29 1 -29 -6 0 -7 5 -4 10
3 6 1 10 -4 10 -6 0 -11 -5 -11 -11 0 -5 -5 -7 -12 -3 -6 4 -28 6 -49 6 -21
-1 -41 3 -44 8 -3 6 -16 10 -28 9 -15 0 -17 -2 -7 -6 32 -12 214 -151 217
-166 4 -15 31 -36 38 -29 5 4 5 1 1 -5 -7 -12 5 -18 27 -14 5 1 6 -3 2 -9 -8
-13 -14 -9 -99 59 -96 78 -145 114 -191 141 -50 29 -40 19 52 -53 72 -57 86
-72 89 -95 1 -7 -25 11 -58 40 -59 52 -168 138 -175 138 -2 0 24 -26 58 -58
58 -55 61 -59 45 -75 -13 -13 -14 -17 -4 -17 8 0 20 6 27 13 11 10 13 10 7 0
-5 -8 -1 -13 10 -13 9 0 124 -108 254 -240 207 -209 242 -240 268 -240 l30 0
1 265 c1 259 1 265 -19 265 -11 0 -20 5 -20 10 0 6 -11 10 -24 10 -14 0 -28 5
-31 10 -4 6 -12 4 -21 -5 -9 -8 -23 -14 -32 -14 -15 1 -15 2 1 6 29 8 20 26
-10 19 -16 -4 -23 -3 -17 1 7 5 8 16 3 28 -6 15 -8 16 -8 4 -1 -9 -11 -20 -23
-23 l-23 -7 23 -11 c34 -17 26 -28 -10 -16 -18 6 -41 11 -50 11 -9 1 -15 4
-12 8 2 4 -2 9 -8 12 -7 2 -10 8 -6 12 5 5 20 3 35 -4 21 -10 29 -9 40 2 11
11 10 15 -9 24 -13 6 -36 14 -51 18 -15 3 -25 10 -22 15 8 12 4 12 -15 0z
m233 -150 c33 -19 45 -30 32 -30 -23 0 -115 42 -115 53 0 15 32 6 83 -23z
m-308 -120 c10 -11 16 -20 13 -20 -3 0 -13 9 -23 20 -10 11 -16 20 -13 20 3 0
13 -9 23 -20z m170 -138 c-3 -3 -11 0 -18 7 -9 10 -8 11 6 5 10 -3 15 -9 12
-12z m76 1 c13 -16 12 -17 -3 -4 -10 7 -18 15 -18 17 0 8 8 3 21 -13z m129
-23 c0 -5 -9 -10 -20 -10 -11 0 -20 5 -20 10 0 6 9 10 20 10 11 0 20 -4 20
-10z m-189 -17 c13 -16 12 -17 -3 -4 -17 13 -22 21 -14 21 2 0 10 -8 17 -17z
m102 -69 c15 2 32 -3 38 -10 8 -10 8 -14 0 -14 -6 0 -11 4 -11 8 0 4 -9 8 -20
8 -11 0 -20 -5 -20 -10 0 -13 -49 34 -62 59 -6 11 2 6 19 -12 21 -23 37 -31
56 -29z m42 -44 c3 -5 -1 -10 -10 -10 -9 0 -13 5 -10 10 3 6 8 10 10 10 2 0 7
-4 10 -10z"/>
<path d="M4006 631 c-4 -5 3 -7 14 -4 23 6 26 13 6 13 -8 0 -17 -4 -20 -9z"/>
<path d="M5718 633 c7 -3 16 -2 19 1 4 3 -2 6 -13 5 -11 0 -14 -3 -6 -6z"/>
<path d="M3945 610 c-22 -11 -45 -20 -52 -20 -7 0 -13 -4 -13 -8 0 -9 -78 -37
-92 -34 -5 1 -8 -3 -8 -9 0 -5 -4 -7 -10 -4 -5 3 -10 1 -10 -5 0 -6 -4 -9 -9
-6 -10 7 -61 -16 -61 -27 0 -5 -4 -5 -10 -2 -5 3 -10 1 -10 -4 0 -6 -7 -11
-15 -11 -29 0 -622 -309 -636 -331 -3 -6 -10 -10 -15 -10 -18 1 -83 -33 -78
-41 3 -4 -2 -5 -10 -2 -9 3 -16 2 -16 -4 0 -6 -13 -15 -29 -20 -16 -6 -48 -24
-71 -41 l-43 -31 160 0 c175 0 263 8 241 21 -8 6 1 9 27 10 22 0 51 5 65 9 21
7 18 8 -20 11 -32 1 -37 3 -17 6 19 3 27 10 27 24 0 10 6 19 14 19 7 0 19 7
26 15 7 9 19 14 27 11 8 -3 11 -1 8 4 -3 6 2 13 12 17 10 4 27 15 37 25 11 10
23 18 28 18 4 0 28 16 54 35 25 19 56 38 70 41 13 3 24 10 24 15 0 5 6 9 14 9
8 0 18 5 22 12 4 7 3 8 -4 4 -7 -4 -12 -5 -12 -2 0 3 15 13 32 22 18 9 55 34
83 54 27 21 82 54 120 74 39 21 77 43 85 51 8 7 30 20 48 29 19 10 30 21 26
28 -5 8 -1 9 12 4 16 -6 17 -5 6 6 -12 11 -17 9 -29 -9 -15 -22 -41 -34 -28
-13 3 5 -22 -4 -57 -20 -35 -17 -70 -30 -79 -30 -8 0 -26 -11 -39 -25 -13 -14
-27 -25 -30 -25 -4 0 -40 -18 -80 -40 -40 -22 -78 -40 -84 -40 -19 1 37 39 66
45 15 4 32 13 39 21 6 8 16 14 21 14 5 0 28 13 51 29 23 15 92 52 152 81 123
60 120 58 113 65 -2 3 -22 -4 -43 -15z m-429 -265 c-18 -18 -86 -48 -93 -41
-2 2 6 7 18 11 12 4 32 16 43 26 25 24 56 27 32 4z m-169 -101 c-3 -3 -12 -4
-19 -1 -8 3 -5 6 6 6 11 1 17 -2 13 -5z m-38 -18 c-17 -16 -108 -63 -113 -59
-7 7 106 73 113 67 2 -2 2 -6 0 -8z m-179 -101 c0 -8 -71 -38 -77 -31 -3 3 9
12 28 20 36 16 49 19 49 11z"/>
<path d="M5680 620 c-9 -6 -10 -10 -3 -10 6 0 15 5 18 10 8 12 4 12 -15 0z"/>
<path d="M5737 623 c-16 -4 -15 -7 8 -19 33 -17 65 -18 65 -3 0 7 -10 9 -27 5
-27 -6 -27 -6 -9 9 20 15 20 15 0 14 -10 -1 -27 -3 -37 -6z"/>
<path d="M3765 610 c-11 -5 -38 -16 -59 -25 -22 -8 -37 -18 -34 -20 3 -3 34 8
69 24 35 16 60 30 54 30 -5 0 -19 -4 -30 -9z"/>
<path d="M4028 603 c6 -2 18 -2 25 0 6 3 1 5 -13 5 -14 0 -19 -2 -12 -5z"/>
<path d="M5111 513 c7 -12 15 -20 18 -17 3 2 -3 12 -13 22 -17 16 -18 16 -5
-5z"/>
<path d="M5146 511 c-3 -5 2 -15 12 -22 15 -12 16 -12 5 2 -7 9 -10 19 -6 22
3 4 4 7 0 7 -3 0 -8 -4 -11 -9z"/>
<path d="M4250 503 c-159 -5 -165 -22 -8 -22 93 0 130 4 144 14 18 14 18 14
-1 13 -11 -1 -72 -4 -135 -5z"/>
<path d="M3575 479 c-16 -10 -25 -19 -19 -19 7 0 22 9 35 20 30 24 23 24 -16
-1z"/>
<path d="M3493 469 c-32 -12 -29 -21 5 -14 19 5 22 3 12 -3 -22 -14 -79 -26
-60 -12 10 6 11 10 3 10 -7 0 -21 -8 -31 -18 -10 -10 -24 -16 -30 -14 -7 2
-12 -1 -12 -7 0 -6 5 -11 12 -11 6 0 8 -3 5 -6 -4 -4 -13 -1 -21 5 -11 10 -19
10 -33 1 -14 -9 -14 -10 -2 -7 13 4 15 1 12 -14 -3 -10 -2 -19 1 -19 8 0 88
42 96 50 3 3 24 14 48 24 23 11 42 23 42 28 0 5 -4 7 -9 4 -5 -4 -11 -2 -13 3
-2 5 -13 5 -25 0z m-59 -48 c3 -5 -1 -11 -9 -14 -9 -4 -12 -1 -8 9 6 16 10 17
17 5z"/>
<path d="M5181 424 c93 -127 227 -292 172 -212 -39 57 -166 218 -176 225 -6 3
-4 -2 4 -13z"/>
<path d="M5310 400 c0 -5 5 -10 10 -10 6 0 10 5 10 10 0 6 -4 10 -10 10 -5 0
-10 -4 -10 -10z"/>
<path d="M2945 211 c-6 -11 13 -26 22 -17 4 3 1 6 -6 6 -7 0 -9 5 -6 10 3 6 4
10 1 10 -3 0 -7 -4 -11 -9z"/>
<path d="M2860 195 c0 -8 4 -15 10 -15 5 0 7 7 4 15 -4 8 -8 15 -10 15 -2 0
-4 -7 -4 -15z"/>
<path d="M2810 175 c0 -8 4 -15 10 -15 5 0 7 7 4 15 -4 8 -8 15 -10 15 -2 0
-4 -7 -4 -15z"/>
<path d="M5415 123 c25 -35 48 -63 51 -63 10 0 -14 31 -71 95 -15 17 -6 2 20
-32z"/>
<path d="M1734 161 c4 -5 0 -12 -6 -15 -7 -3 1 -3 17 0 28 4 28 4 6 -6 -18 -8
-22 -16 -19 -35 3 -14 1 -25 -3 -25 -8 0 -13 23 -10 43 1 4 -7 3 -18 -2 -20
-11 -41 -60 -41 -97 0 -21 5 -24 34 -24 33 0 35 2 39 38 l4 37 1 -37 c2 -30 6
-38 21 -38 15 0 20 10 25 57 4 32 9 65 12 74 3 12 -5 20 -27 28 -39 13 -42 14
-35 2z"/>
<path d="M2865 160 c3 -5 11 -10 16 -10 6 0 7 5 4 10 -3 6 -11 10 -16 10 -6 0
-7 -4 -4 -10z"/>
<path d="M1663 120 c-12 -10 -33 -22 -47 -26 -20 -5 -26 -12 -26 -34 0 -43 10
-60 35 -60 20 0 23 6 27 50 3 28 13 59 23 70 23 26 15 26 -12 0z"/>
<path d="M1531 98 c-1 -17 -17 -23 -48 -19 -7 1 -13 -2 -13 -8 0 -5 6 -12 13
-15 6 -3 0 -3 -15 0 -36 8 -46 0 -40 -31 3 -21 10 -25 37 -25 27 0 34 5 39 26
4 15 4 29 1 32 -7 8 48 31 58 24 5 -2 -1 -9 -14 -16 -12 -6 -26 -23 -30 -38
-7 -27 -6 -28 31 -28 l38 0 -9 38 c-10 48 -11 45 14 59 21 13 21 13 -5 9 -15
-3 -32 -7 -37 -10 -5 -4 -12 0 -14 6 -3 8 -6 6 -6 -4z m-74 -54 c-3 -3 -12 -4
-19 -1 -8 3 -5 6 6 6 11 1 17 -2 13 -5z"/>
<path d="M1378 43 c-10 -2 -18 -9 -18 -14 0 -6 7 -6 19 0 10 6 22 7 26 3 5 -4
5 -1 1 6 -4 6 -8 11 -9 11 -1 -1 -10 -3 -19 -6z"/>
<path d="M5486 28 c10 -14 21 -24 23 -22 3 3 -6 15 -18 27 l-24 22 19 -27z"/>
<path d="M1375 10 c-3 -5 3 -10 14 -10 12 0 21 5 21 10 0 6 -6 10 -14 10 -8 0
-18 -4 -21 -10z"/>
</g>
</svg>
